<svg xmlns="http://www.w3.org/2000/svg" width="114.753" height="44.535" viewBox="0 0 114.753 44.535">
  <g id="cloud" transform="translate(-888.499 -848.607)">
    <path id="Path_462" data-name="Path 462" d="M291.892,192.133a.527.527,0,0,1-.525-.49,18.626,18.626,0,0,0-18.526-17.259c-.562,0-1.152.029-1.754.085a.527.527,0,0,1-.506-.263,22.132,22.132,0,0,0-40.474,4.814.525.525,0,0,1-.518.38l-.14,0c-.073,0-.146-.005-.219-.005a15.61,15.61,0,0,0-15.211,12.324.527.527,0,0,1-.516.418H178.193a.527.527,0,0,1,0-1.054H213.08a16.673,16.673,0,0,1,16.13-12.743,23.186,23.186,0,0,1,42.114-4.946c.518-.04,1.027-.061,1.516-.061a19.684,19.684,0,0,1,19.578,18.24.527.527,0,0,1-.489.563Z" transform="translate(710.833 686.609)" fill="#67647e"/>
    <path id="Path_463" data-name="Path 463" d="M344.3,299.054H257.862a.527.527,0,1,1,0-1.054H344.3a.527.527,0,1,1,0,1.054Z" transform="translate(652.158 586.446)" fill="#67647e"/>
    <path id="Path_464" data-name="Path 464" d="M256.849,328.054H227.862a.527.527,0,1,1,0-1.054h28.987a.527.527,0,1,1,0,1.054Z" transform="translate(674.253 565.088)" fill="#67647e"/>
  </g>
</svg>
