<svg id="undraw_browsing_online_re_6ao6" xmlns="http://www.w3.org/2000/svg" width="438.022" height="312.319" viewBox="0 0 438.022 312.319">
  <path id="Path_412" data-name="Path 412" d="M340.429,417.569l5.771-59.378,17.207.576L349.786,417.4a6.787,6.787,0,0,1,2.136,7.6,7.2,7.2,0,0,1-13.342.237,6.778,6.778,0,0,1,1.849-7.674Z" transform="translate(11.013 -254.909)" fill="#ffb8b8"/>
  <path id="Path_2352" data-name="Path 2352" d="M904.34,654.556a59.633,59.633,0,0,0,2.948,16.933c.041.127.084.253.127.38h11c-.012-.115-.024-.241-.035-.38-.733-8.186-4.963-58.008.094-66.528C918.033,605.653,903.489,628.545,904.34,654.556Z" transform="translate(-880.023 -359.551)" fill="#56af91"/>
  <path id="Path_2353" data-name="Path 2353" d="M913.067,664.112c.192.266.393.532.6.794h17.259c-.131-.226-.282-.492-.458-.794-2.852-5-11.291-19.928-19.125-35.414-8.419-16.639-16.143-33.908-15.492-40.159C895.648,589.949,889.824,632.923,913.067,664.112Z" transform="translate(-886.984 -352.587)" fill="#56af91"/>
  <path id="Path_2354" data-name="Path 2354" d="M307.2,621.547a88.8,88.8,0,0,1-4.391,25.218c-.059.19-.125.376-.189.566H286.24c.017-.17.035-.359.052-.566,1.092-12.191,7.391-86.386-.14-99.075C286.811,548.72,308.476,582.812,307.2,621.547Z" transform="translate(97.975 -335.266)" fill="#56af91"/>
  <path id="Path_2355" data-name="Path 2355" d="M279.416,680.088c-.137.19-.28.379-.425.566H266.7c.093-.161.2-.351.326-.566,2.03-3.557,8.04-14.193,13.619-25.218,5.993-11.849,11.5-24.146,11.032-28.6C291.82,627.275,295.969,657.878,279.416,680.088Z" transform="translate(124.533 -368.588)" fill="#56af91"/>
  <path id="Path_2359" data-name="Path 2359" d="M596.039,578.2H767.082a3.126,3.126,0,0,0,3.167-3.074V533.943a3.126,3.126,0,0,0-3.167-3.075H596.039a3.126,3.126,0,0,0-3.167,3.074v41.185A3.126,3.126,0,0,0,596.039,578.2ZM767.082,532.1a1.876,1.876,0,0,1,1.9,1.843v41.185a1.876,1.876,0,0,1-1.9,1.843H596.039a1.875,1.875,0,0,1-1.9-1.843V533.943a1.875,1.875,0,0,1,1.9-1.843Z" transform="translate(-547.009 -328.133)" fill="#3f3d56"/>
  <ellipse id="Ellipse_472" data-name="Ellipse 472" cx="12.902" cy="12.524" rx="12.902" ry="12.524" transform="translate(223.316 274.731)" fill="#ffd19b"/>
  <path id="Path_2357" data-name="Path 2357" d="M721.13,663.868a2.088,2.088,0,1,1,0,4.175H619.752a2.088,2.088,0,1,1-.009-4.174Z" transform="translate(-514.711 -384.53)" fill="#e6e6e6"/>
  <path id="Path_2358" data-name="Path 2358" d="M663.364,685.614a2.088,2.088,0,1,1,.009,4.175H619.741a2.088,2.088,0,1,1,0-4.174Z" transform="translate(-456.945 -393.751)" fill="#e6e6e6"/>
  <ellipse id="Ellipse_473" data-name="Ellipse 473" cx="12.902" cy="12.524" rx="12.902" ry="12.524" transform="translate(180.594 213.68)" fill="#ffd19b"/>
  <path id="Path_2360" data-name="Path 2360" d="M793.125,557.868a2.088,2.088,0,1,1,0,4.174H691.748a2.088,2.088,0,1,1,0-4.175Z" transform="translate(-629.428 -339.581)" fill="#e6e6e6"/>
  <path id="Path_2361" data-name="Path 2361" d="M735.371,579.614a2.088,2.088,0,1,1,0,4.175H691.748a2.088,2.088,0,1,1,0-4.175Z" transform="translate(-571.674 -348.803)" fill="#e6e6e6"/>
  <path id="Path_2362" data-name="Path 2362" d="M540.039,327H711.082a3.126,3.126,0,0,0,3.167-3.074V181.943a3.126,3.126,0,0,0-3.167-3.074H540.039a3.126,3.126,0,0,0-3.167,3.074V323.921a3.125,3.125,0,0,0,3.167,3.074ZM711.082,180.1a1.876,1.876,0,0,1,1.9,1.843V323.921a1.876,1.876,0,0,1-1.9,1.843H540.039a1.875,1.875,0,0,1-1.9-1.843V181.943a1.875,1.875,0,0,1,1.9-1.843Z" transform="translate(-457.782 -178.869)" fill="#3f3d56"/>
  <ellipse id="Ellipse_474" data-name="Ellipse 474" cx="12.902" cy="12.524" rx="12.902" ry="12.524" transform="translate(213.822 110.355)" fill="#ff8f00"/>
  <path id="Path_2363" data-name="Path 2363" d="M737.125,377.72a2.088,2.088,0,1,1,0,4.175H635.748a2.088,2.088,0,1,1,0-4.175Z" transform="translate(-540.2 -263.191)" fill="#ccc"/>
  <path id="Path_2364" data-name="Path 2364" d="M679.371,399.466a2.088,2.088,0,1,1,0,4.174H635.748a2.088,2.088,0,1,1,0-4.174Z" transform="translate(-482.446 -272.412)" fill="#ccc"/>
  <path id="Path_2366" data-name="Path 2366" d="M368.7,606.053h13.054l7.714-105.4.3,26.782,28.481,73.722,11.274-8.639-18.69-73.434,8.9-40.893H361.58Z" transform="translate(-69.041 -305.795)" fill="#2f2e41"/>
  <ellipse id="Ellipse_475" data-name="Ellipse 475" cx="15.427" cy="14.975" rx="15.427" ry="14.975" transform="translate(304.999 12.281)" fill="#ffb8b8"/>
  <path id="Path_2370" data-name="Path 2370" d="M354.571,394.661c25.2-6.278,48.853-10.508,63.488-2.88-2.563-26.155.4-59.542,9.2-94.437,2.856-11.334.919-21.547-9.494-27.378l-13.944-7.775-21.361.576-11.145,5.985a26.942,26.942,0,0,0-14.984,29.361C362.317,328.7,359.081,361.713,354.571,394.661Z" transform="translate(-63.813 -214.201)" fill="#3f3d56"/>
  <path id="Path_2372" data-name="Path 2372" d="M335.081,330l27.887-1.728c-2.179-26.63-8.379-41.187-17.8-46.076L335.081,293.71Z" transform="translate(13.232 -222.682)" fill="#3f3d56"/>
  <path id="Path_2375" data-name="Path 2375" d="M608.527,291.9H779.571a3.125,3.125,0,0,0,3.167-3.074V215.965a3.125,3.125,0,0,0-3.167-3.074H608.527a3.125,3.125,0,0,0-3.167,3.074v72.862a3.125,3.125,0,0,0,3.167,3.074Z" transform="translate(-566.908 -193.296)" fill="#ffd8ac"/>
  <path id="Path_2376" data-name="Path 2376" d="M769.308,256.985a2.088,2.088,0,1,1,0,4.174H667.93a2.088,2.088,0,1,1,0-4.174Z" transform="translate(-591.478 -211.994)" fill="#fff"/>
  <path id="Path_2377" data-name="Path 2377" d="M769.308,277.985a2.088,2.088,0,1,1,0,4.174H667.93a2.088,2.088,0,1,1,0-4.175Z" transform="translate(-591.478 -220.899)" fill="#fff"/>
  <path id="Path_2378" data-name="Path 2378" d="M711.553,298.731a2.088,2.088,0,1,1,0,4.175H667.93a2.088,2.088,0,1,1,0-4.175Z" transform="translate(-533.723 -229.696)" fill="#fff"/>
  <path id="Path_1784" data-name="Path 1784" d="M394.887,191.964c1.437-.146,2.792.6,4.206.9,2.907.619,5.886-.663,8.875-.653a16.843,16.843,0,0,1,7.3,2.114,17.638,17.638,0,0,1,4.865,3.307,7.6,7.6,0,0,1,2.321,5.2,8.272,8.272,0,0,0,.1,3.374,9.473,9.473,0,0,0,1.068,1.575,4.561,4.561,0,0,1,.5,3.9,12.926,12.926,0,0,1-2.4,3.487c-1.924,2.4-3.129,5.264-4.855,7.806a24.418,24.418,0,0,1-2.526,3.115,1.778,1.778,0,0,1-.545.416,1.719,1.719,0,0,1-.637.09c-3.662.1-7.451.18-10.822-1.215a4.923,4.923,0,0,1-2.6-2.024,6.944,6.944,0,0,1-.255-4.049,18.017,18.017,0,0,0-.1-4.5,1.952,1.952,0,0,0-.593-1.339,1.9,1.9,0,0,0-1.854-.058,5.166,5.166,0,0,1-1.842.54c-1.263,0-2.062-1.395-2.318-2.61a6.044,6.044,0,0,0-2.584-5.725,8.462,8.462,0,0,1-1.587-7.682C389.441,195.406,391.99,192.245,394.887,191.964Z" transform="translate(-79.721 -184.414)" fill="#2f2e41"/>
  <path id="Path_2356" data-name="Path 2356" d="M524.039,684.2H695.082a3.126,3.126,0,0,0,3.167-3.074V639.943a3.125,3.125,0,0,0-3.167-3.074H524.039a3.126,3.126,0,0,0-3.167,3.074v41.185a3.126,3.126,0,0,0,3.167,3.074ZM695.082,638.1a1.876,1.876,0,0,1,1.9,1.843v41.185a1.876,1.876,0,0,1-1.9,1.843H524.039a1.875,1.875,0,0,1-1.9-1.843V639.943a1.875,1.875,0,0,1,1.9-1.843Z" transform="translate(-432.288 -373.081)" fill="#3f3d56"/>
  <path id="Path_413" data-name="Path 413" d="M451.429,413.569l5.771-59.378,17.207.576L460.786,413.4a6.787,6.787,0,0,1,2.136,7.6,7.2,7.2,0,0,1-13.342.237,6.778,6.778,0,0,1,1.849-7.674Z" transform="translate(-165.849 -253.213)" fill="#ffb8b8"/>
  <path id="Path_2374" data-name="Path 2374" d="M442.08,329.9l26.107,5.76,1.187-41.469-14.834.576Z" transform="translate(-156.661 -227.771)" fill="#3f3d56"/>
  <path id="Path_414" data-name="Path 414" d="M472.389,698.39H453.452A11.9,11.9,0,0,0,441.384,710.1v.381h31Z" transform="translate(-159.263 -399.168)" fill="#2f2e41"/>
  <path id="Path_415" data-name="Path 415" d="M371.308,673.121l-15.919,9.955h0a11.511,11.511,0,0,0-3.609,16.191l.212.32,26.064-16.3Z" transform="translate(-10.622 -388.454)" fill="#2f2e41"/>
  <rect id="Rectangle_256" data-name="Rectangle 256" width="438.022" height="1.152" transform="translate(0 311.167)" fill="#cacaca"/>
</svg>
