<svg xmlns="http://www.w3.org/2000/svg" width="437.153" height="325.619" viewBox="0 0 437.153 325.619">
  <g id="strategy" transform="translate(-142.085 -1305.835)">
    <g id="undraw_Environmental_study_re_q4q8" transform="translate(142.085 1305.835)">
      <circle id="Ellipse_59" data-name="Ellipse 59" cx="34.19" cy="34.19" r="34.19" transform="translate(114.608 160.357)" fill="#e5e5e5"/>
      <path id="Path_416" data-name="Path 416" d="M414.328,466.684A34.193,34.193,0,0,0,471.3,502.87a34.193,34.193,0,1,1-56.971-36.186Z" transform="translate(-290.775 -294.973)" opacity="0.2"/>
      <path id="Path_417" data-name="Path 417" d="M277.5,364.626h.094l1.691,96.936h-3.569Z" transform="translate(-128.605 -170.078)" fill="#b8797d"/>
      <circle id="Ellipse_60" data-name="Ellipse 60" cx="41.182" cy="41.182" r="41.182" transform="translate(167.186 98.116)" fill="#e5e5e5"/>
      <path id="Path_418" data-name="Path 418" d="M577.865,354.38a41.185,41.185,0,0,1-68.621,43.586,41.186,41.186,0,1,0,68.621-43.586Z" transform="translate(-339.089 -242.589)" opacity="0.2"/>
      <path id="Path_419" data-name="Path 419" d="M388.437,261.075h-.113l-2.037,116.758h4.3Z" transform="translate(-180.182 -121.777)" fill="#b8797d"/>
      <path id="Path_420" data-name="Path 420" d="M430.277,329.67l5.592-4.472c-4.344-.479-6.129,1.89-6.859,3.765-3.394-1.409-7.088.438-7.088.438l11.188,4.061A8.466,8.466,0,0,0,430.277,329.67Z" transform="translate(-298.358 -228.947)" fill="#cbcbcb"/>
      <path id="Path_421" data-name="Path 421" d="M403.859,257.343l5.591-4.472c-4.344-.479-6.129,1.89-6.859,3.765-3.394-1.409-7.088.438-7.088.438l11.188,4.061A8.466,8.466,0,0,0,403.859,257.343Z" transform="translate(-286.036 -195.211)" fill="#cbcbcb"/>
      <path id="Path_422" data-name="Path 422" d="M552.318,304.1l5.591-4.472c-4.344-.479-6.129,1.89-6.859,3.765-3.394-1.409-7.088.438-7.088.438L555.15,307.9A8.465,8.465,0,0,0,552.318,304.1Z" transform="translate(-355.284 -217.023)" fill="#cbcbcb"/>
      <path id="Path_423" data-name="Path 423" d="M549.266,620.927s.214-4.483,4.6-3.962" transform="translate(-357.758 -365.051)" fill="#cbcbcb"/>
      <path id="Path_424" data-name="Path 424" d="M605.107,620.927s.214-4.483,4.6-3.962" transform="translate(-383.805 -365.051)" fill="#cbcbcb"/>
      <path id="Path_425" data-name="Path 425" d="M588.848,620.927s.214-4.483,4.6-3.962" transform="translate(-376.221 -365.051)" fill="#cbcbcb"/>
      <path id="Path_426" data-name="Path 426" d="M530.288,620.927s-.214-4.483-4.6-3.962" transform="translate(-346.76 -365.051)" fill="#cbcbcb"/>
      <path id="Path_427" data-name="Path 427" d="M565.128,621.508s-.214-4.483-4.6-3.962" transform="translate(-363.011 -365.322)" fill="#cbcbcb"/>
      <path id="Path_428" data-name="Path 428" d="M441.266,686.927s.214-4.483,4.6-3.962" transform="translate(-307.382 -395.837)" fill="#cbcbcb"/>
      <path id="Path_429" data-name="Path 429" d="M497.107,686.927s.214-4.483,4.6-3.962" transform="translate(-333.429 -395.837)" fill="#cbcbcb"/>
      <path id="Path_430" data-name="Path 430" d="M480.848,686.927s.214-4.483,4.6-3.962" transform="translate(-325.845 -395.837)" fill="#cbcbcb"/>
      <path id="Path_431" data-name="Path 431" d="M422.288,686.927s-.214-4.483-4.6-3.962" transform="translate(-296.384 -395.837)" fill="#cbcbcb"/>
      <path id="Path_432" data-name="Path 432" d="M457.128,687.509s-.214-4.483-4.6-3.962" transform="translate(-312.635 -396.108)" fill="#cbcbcb"/>
      <rect id="Rectangle_92" data-name="Rectangle 92" width="57.334" height="5.109" transform="translate(302.622 80.943)" fill="#3f3d56"/>
      <rect id="Rectangle_93" data-name="Rectangle 93" width="57.334" height="5.109" transform="translate(302.622 99.763)" fill="#3f3d56"/>
      <rect id="Rectangle_94" data-name="Rectangle 94" width="57.334" height="5.109" transform="translate(302.622 116.623)" fill="#3f3d56"/>
      <path id="Path_433" data-name="Path 433" d="M717.1,295.524a6.666,6.666,0,1,1,6.666,6.666h0A6.673,6.673,0,0,1,717.1,295.524Z" transform="translate(-436.043 -212.026)" fill="#ffd8ac"/>
      <path id="Path_434" data-name="Path 434" d="M717.1,330.8a6.666,6.666,0,1,1,6.666,6.666h0A6.673,6.673,0,0,1,717.1,330.8Z" transform="translate(-436.043 -228.48)" fill="#ffd8ac"/>
      <path id="Path_435" data-name="Path 435" d="M717.1,362.4a6.666,6.666,0,1,1,6.666,6.666h0A6.673,6.673,0,0,1,717.1,362.4Z" transform="translate(-436.043 -243.219)" fill="#ffd8ac"/>
      <path id="Path_436" data-name="Path 436" d="M420.723,215.727l-.843-.654,21.582-27.789h28.225v1.067h-27.7Z" transform="translate(-195.851 -87.358)" fill="#3f3d56"/>
      <rect id="Rectangle_95" data-name="Rectangle 95" width="57.334" height="5.109" transform="translate(0 141.768)" fill="#3f3d56"/>
      <rect id="Rectangle_96" data-name="Rectangle 96" width="57.334" height="5.109" transform="translate(0 160.589)" fill="#3f3d56"/>
      <rect id="Rectangle_97" data-name="Rectangle 97" width="57.334" height="5.109" transform="translate(0 177.448)" fill="#3f3d56"/>
      <path id="Path_437" data-name="Path 437" d="M319.891,416.19h0a6.666,6.666,0,1,1,6.666-6.666A6.666,6.666,0,0,1,319.891,416.19Z" transform="translate(-247.658 -265.201)" fill="#ffd8ac"/>
      <path id="Path_438" data-name="Path 438" d="M319.891,451.464h0a6.666,6.666,0,1,1,6.666-6.665,6.665,6.665,0,0,1-6.666,6.665Z" transform="translate(-247.658 -281.655)" fill="#ffd8ac"/>
      <path id="Path_439" data-name="Path 439" d="M319.891,483.063h0a6.666,6.666,0,1,1,6.666-6.666A6.666,6.666,0,0,1,319.891,483.063Z" transform="translate(-247.658 -296.394)" fill="#ffd8ac"/>
      <path id="Path_440" data-name="Path 440" d="M210.373,329.727l-21.262-27.376h-27.7v-1.067h28.225l.16.206,21.422,27.582Z" transform="translate(-75.288 -140.533)" fill="#3f3d56"/>
      <rect id="Rectangle_98" data-name="Rectangle 98" width="57.334" height="5.109" transform="translate(199.113 4.111)" fill="#3f3d56"/>
      <rect id="Rectangle_99" data-name="Rectangle 99" width="57.334" height="5.109" transform="translate(199.113 22.932)" fill="#3f3d56"/>
      <rect id="Rectangle_100" data-name="Rectangle 100" width="57.334" height="5.109" transform="translate(199.113 39.792)" fill="#3f3d56"/>
      <path id="Path_441" data-name="Path 441" d="M523.1,151.524a6.666,6.666,0,1,1,6.666,6.666h0a6.673,6.673,0,0,1-6.666-6.666Z" transform="translate(-345.553 -144.858)" fill="#ffd8ac"/>
      <path id="Path_442" data-name="Path 442" d="M523.1,186.8a6.666,6.666,0,1,1,6.666,6.666h0A6.673,6.673,0,0,1,523.1,186.8Z" transform="translate(-345.553 -161.312)" fill="#ffd8ac"/>
      <path id="Path_443" data-name="Path 443" d="M523.1,218.4a6.666,6.666,0,1,1,6.666,6.666h0A6.673,6.673,0,0,1,523.1,218.4Z" transform="translate(-345.553 -176.051)" fill="#ffd8ac"/>
      <path id="Path_444" data-name="Path 444" d="M226.722,71.727l-.842-.654,21.582-27.789h28.225v1.067h-27.7Z" transform="translate(-105.361 -20.19)" fill="#3f3d56"/>
      <path id="Path_445" data-name="Path 445" d="M752.788,591.175h-3.6l-1.713-13.891h5.315Z" transform="translate(-348.656 -269.272)" fill="#ffb7b7"/>
      <path id="Path_446" data-name="Path 446" d="M939.341,750.64H927.729v-.147a4.52,4.52,0,0,1,4.52-4.52h7.093Z" transform="translate(-534.291 -425.246)" fill="#2f2e41"/>
      <path id="Path_447" data-name="Path 447" d="M723.788,591.175h-3.6l-1.713-13.891h5.315Z" transform="translate(-335.13 -269.272)" fill="#ffb7b7"/>
      <path id="Path_448" data-name="Path 448" d="M910.341,750.64H898.729v-.147a4.52,4.52,0,0,1,4.52-4.52h7.093Z" transform="translate(-520.763 -425.246)" fill="#2f2e41"/>
      <path id="Path_449" data-name="Path 449" d="M708.8,430.773l-4.88,7.76,8.191,78.3,8.56.518,1.8-67.629,3,36.149-1.186,31.48,8.813.427,5.237-45.672,3.943-36.122-7.737-7.2Z" transform="translate(-328.342 -200.005)" fill="#2f2e41"/>
      <path id="Path_450" data-name="Path 450" d="M923.689,466.142l-13.339.534-12.36,60.976s20.09,9.969,28.23.907l4.892-3.584Z" transform="translate(-520.419 -294.72)" fill="#f3f5f9"/>
      <path id="Path_451" data-name="Path 451" d="M943.893,466.142l11.738,6.841-4.337,28.64,3.8,29.2-12.35-2.013s-2.529-27.19-.888-35.726S943.893,466.142,943.893,466.142Z" transform="translate(-540.623 -294.72)" fill="#67647e"/>
      <path id="Path_452" data-name="Path 452" d="M903.475,467.142l-14.045,7.209,1.07,31.718L883.25,530.1s14.454,4.626,16.939-2.622S903.475,467.142,903.475,467.142Z" transform="translate(-513.544 -295.186)" fill="#67647e"/>
      <path id="Path_453" data-name="Path 453" d="M952.182,587.046a3.565,3.565,0,0,0,1.318-5.3l4.239-6.956-3.6-3.607-5.848,9.907a3.584,3.584,0,0,0,3.891,5.96Z" transform="translate(-543.282 -343.713)" fill="#ffb7b7"/>
      <path id="Path_454" data-name="Path 454" d="M954.094,482.4l5.6-4.435s5.292,4.331,5.161,8.482,1.454,26.266,1.454,26.266L957.572,539l-6.5-5.2,7.618-20.52-6-17.51Z" transform="translate(-545.177 -300.234)" fill="#67647e"/>
      <path id="Path_455" data-name="Path 455" d="M885.631,589.264a3.565,3.565,0,0,1-.557-5.437l-3.217-7.484,4.071-3.064,4.4,10.632a3.584,3.584,0,0,1-4.691,5.353Z" transform="translate(-512.893 -344.693)" fill="#ffb7b7"/>
      <path id="Path_456" data-name="Path 456" d="M890.741,485.208l-4.916-5.179s-5.849,3.543-6.3,7.671-5.138,25.8-5.138,25.8l4.945,27.253,7.171-4.236-4.653-21.388,8.409-16.49Z" transform="translate(-509.408 -301.197)" fill="#67647e"/>
      <circle id="Ellipse_61" data-name="Ellipse 61" cx="9.111" cy="9.111" r="9.111" transform="translate(387.915 149.215)" fill="#ffb7b7"/>
      <path id="Path_457" data-name="Path 457" d="M923.917,421.892a4.749,4.749,0,0,0-2.683.638,3.953,3.953,0,0,1-2.7.47,2.766,2.766,0,0,1-1.7-1.88,8.164,8.164,0,0,1-.23-2.612l.97.561-.663-1.114,9.454-1.045c2.86-.316,6.068-.537,8.293,1.289a8.267,8.267,0,0,1,2.385,3.825c1.887,5.778,4.03,14.2-5.657,15.914-1.35-.373.852-5.344.829-6.744s-.793-2.975-2.178-3.19l-1.014,1.41c.649-.9-1.654-3.832-2.227-4.4a9.114,9.114,0,0,1-1.386-1.469C924.961,422.839,924.956,422.076,923.917,421.892Z" transform="translate(-529.094 -271.656)" fill="#2f2e41"/>
      <path id="Path_458" data-name="Path 458" d="M924.7,754.209H829.194a.534.534,0,1,1,0-1.067H924.7a.534.534,0,1,1,0,1.067Z" transform="translate(-488.08 -428.59)" fill="#cbcbcb"/>
    </g>
  </g>
</svg>
