<svg xmlns="http://www.w3.org/2000/svg" xmlns:xlink="http://www.w3.org/1999/xlink" className="hero-banner" viewBox="0 0 447.873 372.248">
  <defs>
    <linearGradient id="linear-gradient" x1="-2.055" y1="1" x2="-2.055" gradientUnits="objectBoundingBox">
      <stop offset="0" stop-color="gray" stop-opacity="0.251" />
      <stop offset="0.54" stop-color="gray" stop-opacity="0.122" />
      <stop offset="1" stop-color="gray" stop-opacity="0.102" />
    </linearGradient>
  </defs>
  <g id="Group_17" data-name="Group 17" transform="translate(-2469.168 267.498)">
    <path id="Path_1" data-name="Path 1" d="M1045.744,308.36H1004.42v50.093h38.3c.1.517.193,1.034.306,1.546H1004.42v40.389l.193-.063q1.636-.575,3.25-1.222l.692-.283q1.654-.679,3.25-1.452c.382-.175.76-.36,1.133-.548a67.344,67.344,0,0,0,16.257-11.237c.139-.121.27-.247.4-.369.661-.638,1.308-1.281,1.937-1.942l.692-.737c.742-.8,1.456-1.636,2.153-2.477l.306-.368a52.33,52.33,0,0,0,7-11.237c.058-.121.108-.247.162-.369.562-1.267,1.07-2.553,1.51-3.861.189-.553.368-1.106.526-1.659.054-.166.1-.328.148-.49,2.292-8.023,2.558-16.361,2.558-24.653v-2.9c0-3.349-.05-6.742-.112-10.09,0-.872-.041-1.739-.063-2.616q-.081-3.34-.243-6.67c-.027-.62-.054-1.236-.094-1.847,0-.355-.036-.71-.058-1.065C1045.924,310.917,1045.843,309.641,1045.744,308.36Z" transform="translate(1870.457 -453.39)" fill="#ff8f00" opacity="0.1" />
    <path id="Path_2" data-name="Path 2" d="M1004.4,153.086h22.667A154.973,154.973,0,0,0,1015,138.325c-3.371-3.677-6.908-7.263-10.612-10.715Z" transform="translate(1870.473 -353.881)" fill="#ff8f00" opacity="0.1" />
    <path id="Path_3" data-name="Path 3" d="M1004.42,187.713v52.673h41.194c0-.153-.027-.31-.041-.449-.036-.414-.072-.827-.112-1.245s-.094-.971-.148-1.461-.108-1.056-.171-1.578-.117-1.056-.184-1.582-.13-1.052-.2-1.573-.139-1.052-.22-1.573c-.063-.449-.121-.863-.189-1.3-.094-.611-.193-1.227-.3-1.834a2.658,2.658,0,0,0-.049-.27,112.988,112.988,0,0,0-3.029-13.228,91.006,91.006,0,0,0-5.111-13.426,97.486,97.486,0,0,0-7.69-13.169Z" transform="translate(1870.457 -386.963)" fill="#ff8f00" opacity="0.1" />
    <path id="Path_4" data-name="Path 4" d="M412.647,158.353v50.093h88.266V158.353Zm0,51.639v33.921c10.275-3.286,22.024-1.96,32.676.737,8.248,2.095,16.284,4.944,24.518,6.994a89.94,89.94,0,0,0,11.178,2.112l.926.1c.45.045.9.09,1.348.126l1.348.094h.742a1.6,1.6,0,0,0,.207,0l.728.027h.022c.346,0,.7,0,1.047.027h2.886a7.629,7.629,0,0,0,.787-.027c.422,0,.845-.036,1.272-.067l.786-.049.971-.076c.688-.054,1.348-.126,2.045-.207.27-.031.544-.063.814-.1l.4-.049c.679-.09,1.348-.2,2.027-.31.5-.076,1-.171,1.5-.261V209.993ZM478.3,102.57v1.546H412.647v52.691h88.266V104.134h-4.427v-1.546h4.427V68.546c-17.17-13.83-37.238-24.662-59.59-29.665a126.75,126.75,0,0,0-28.676-2.989v66.7Zm-201.81-.3.31.3H402.772V36.355c-22.428,1.865-44.3,9.4-61.932,21.88-8.472,5.991-16.082,13.093-25.588,17.691a40.07,40.07,0,0,1-16,4.135Zm-.867-27.166V90.1L287.79,78.218a54.68,54.68,0,0,0-12.19-3.092Zm-.4,188.578h.4v32.856q6.89-.512,13.727-1.411a245.607,245.607,0,0,0,59.442-15.4h0q3.074-1.232,6.1-2.544,2.018-.876,4.014-1.8,2.993-1.375,5.942-2.827a209.074,209.074,0,0,0,25.112-14.59c.5-.337,1-.679,1.5-1.025q1.492-1.034,2.962-2.086c.49-.355.98-.71,1.465-1.07l1-.764c1.007-.751,2.009-1.506,3.025-2.247h0c.939-.674,1.888-1.348,2.85-1.978V209.97h-101.2c.072-.229.139-.449.216-.692-.081.234-.153.449-.22.692H275.6v53.707Zm.4-159.56v52.682H402.772V104.134Zm0,54.219v50.1H402.772V158.353ZM250.2,76.65,265.73,91.81V75.041Q257.923,75.526,250.2,76.65Zm-108.164,81.7v50.093h123.7V158.353Zm29.9,123.715A229.743,229.743,0,0,0,230.24,295.9h.085q5.659.6,11.349.926h.139c7.951.449,15.934.553,23.9.256V209.993H142.033l.449,57.675M107.77,208.446h24.4V158.353h-9.65c-1,1.762-1.973,3.533-2.895,5.331q-.742,1.434-1.443,2.9C111.829,179.766,107.792,194.257,107.77,208.446Zm0,1.546a63.323,63.323,0,0,0,7.52,29.391,72.072,72.072,0,0,0,16.859,20.226V209.993ZM123.4,156.807h8.747V143.773a139.044,139.044,0,0,0-8.729,13.035Zm54.8-54.219h84.607l.306-.3-.449-.449h0l-23.79-23.206a193.191,193.191,0,0,0-20.887,5.6c-.647.211-1.294.449-1.937.652a189.434,189.434,0,0,0-37.849,17.7ZM142.033,131.97v24.837H265.744V105.568l-1.735-1.411H175.716a169.777,169.777,0,0,0-33.683,27.813Z" transform="translate(2364.093 -303.384)" fill="#ff8f00" opacity="0.1" />
    <path id="Path_5" data-name="Path 5" d="M1004.42,246.84v26.1h41.194c0-.153-.027-.31-.041-.449-.036-.414-.072-.827-.112-1.245s-.094-.971-.148-1.461-.108-1.056-.171-1.578-.117-1.056-.184-1.582-.13-1.052-.2-1.573-.139-1.052-.22-1.573c-.063-.449-.121-.863-.189-1.3-.094-.611-.193-1.227-.3-1.834a2.661,2.661,0,0,0-.049-.27,112.99,112.99,0,0,0-3.029-13.228Z" transform="translate(1870.457 -419.522)" fill="#ff8f00" opacity="0.1" />
    <path id="Path_6" data-name="Path 6" d="M1045.744,308.36H1004.42v50.093h38.3c.1.517.193,1.034.306,1.546H1004.42v40.389l.193-.063q1.636-.575,3.25-1.222l.692-.283q1.654-.679,3.25-1.452c.382-.175.76-.36,1.133-.548a67.344,67.344,0,0,0,16.257-11.237c.139-.121.27-.247.4-.369.661-.638,1.308-1.281,1.937-1.942l.692-.737c.742-.8,1.456-1.636,2.153-2.477l.306-.368a52.33,52.33,0,0,0,7-11.237c.058-.121.108-.247.162-.369.562-1.267,1.07-2.553,1.51-3.861.189-.553.368-1.106.526-1.659.054-.166.1-.328.148-.49,2.292-8.023,2.558-16.361,2.558-24.653v-2.9c0-3.349-.05-6.742-.112-10.09,0-.872-.041-1.739-.063-2.616q-.081-3.34-.243-6.67c-.027-.62-.054-1.236-.094-1.847,0-.355-.036-.71-.058-1.065C1045.924,310.917,1045.843,309.641,1045.744,308.36Z" transform="translate(1870.457 -453.39)" fill="#ff8f00" opacity="0.1" />
    <path id="Path_7" data-name="Path 7" d="M811.56,149.882v45.131h31.072V149.882H838.2V134.6h-18.19v15.282Z" transform="translate(2022.375 -341.589)" fill="#ff8f00" opacity="0.1" />
    <rect id="Rectangle_2" data-name="Rectangle 2" width="31.072" height="50.088" transform="translate(2833.935 -145.03)" fill="#ff8f00" opacity="0.1" />
    <path id="Path_8" data-name="Path 8" d="M944.407,423.25H913.34V464.9a90.539,90.539,0,0,0,11.174,2.112l.926.1c.449.049.9.09,1.348.126l1.348.094h.139a4.545,4.545,0,0,1,.6.027h.207a6.69,6.69,0,0,1,.733.027h0c.346,0,.7,0,1.047.027h2.885l.791-.027c.418,0,.845-.036,1.268-.067l.782-.049.975-.076c.683-.058,1.349-.126,2.041-.207l.814-.1.4-.049c.679-.094,1.349-.193,2.027-.31.5-.076,1-.171,1.5-.261Z" transform="translate(1920.599 -516.641)" fill="#ff8f00" opacity="0.1" />
    <rect id="Rectangle_3" data-name="Rectangle 3" width="25.624" height="50.457" transform="translate(2639.694 -197.038)" fill="#ff8f00" opacity="0.1" />
    <path id="Path_9" data-name="Path 9" d="M379.4,272.45v50.093H506.572V300.937H438.833v12.747H405.02V272.45Z" transform="translate(2260.293 -417.48)" fill="#ff8f00" opacity="0.1" />
    <path id="Path_10" data-name="Path 10" d="M480.27,476.119h.4v32.86q6.89-.521,13.727-1.411a246.049,246.049,0,0,0,59.46-15.421q8.2-3.29,16.059-7.164a209.07,209.07,0,0,0,25.112-14.594q3.007-2.041,5.92-4.176c1.348-.993,2.7-2,4.045-2.989.939-.674,1.888-1.348,2.85-1.982V422.408H506.636c.072-.229.139-.45.211-.688-.076.229-.153.45-.22.688H480.675V476.1Z" transform="translate(2159.019 -515.799)" fill="#ff8f00" opacity="0.1" />
    <path id="Path_11" data-name="Path 11" d="M332.5,161.806h16.693v-4.625h-7.479V143.45c-.647.211-1.294.449-1.937.652v13.079H332.5Z" transform="translate(2240.372 -362.602)" fill="#ff8f00" opacity="0.1" />
    <path id="Path_12" data-name="Path 12" d="M243,240.4h97.179V189.941h-4.306v37.306H316.186V205.169H299.92V187.73H283.227v17.439H266.965v22.073H243Z" transform="translate(2289.644 -386.979)" fill="#ff8f00" opacity="0.1" />
    <path id="Path_13" data-name="Path 13" d="M210.518,308.36v50.093H307.7V308.36Zm3.393,123.715a229.747,229.747,0,0,0,58.309,13.835h.085q5.659.6,11.349.926h.139c7.951.449,15.934.553,23.9.256V360H210.518v17.758H184l.139,39.647" transform="translate(2322.126 -453.39)" fill="#ff8f00" opacity="0.1" />
    <path id="Path_14" data-name="Path 14" d="M130.477,423.25H107.81a63.378,63.378,0,0,0,7.52,29.391,72.084,72.084,0,0,0,16.859,20.226V441.008h-1.712Z" transform="translate(2364.071 -516.641)" fill="#ff8f00" opacity="0.1" />
    <path id="Path_15" data-name="Path 15" d="M107.77,368.533h22.685V326.67H118.18C111.829,339.853,107.792,354.344,107.77,368.533Z" transform="translate(2364.093 -463.471)" fill="#ff8f00" opacity="0.1" />
    <rect id="Rectangle_4" data-name="Rectangle 4" width="13.727" height="15.821" transform="translate(2639.694 -183.01)" fill="#ff8f00" opacity="0.1" />
    <rect id="Rectangle_5" data-name="Rectangle 5" width="13.727" height="3.641" transform="translate(2639.694 -150.217)" fill="#ff8f00" opacity="0.1" />
    <rect id="Rectangle_6" data-name="Rectangle 6" width="13.727" height="10.63" transform="translate(2639.694 -145.03)" fill="#ff8f00" opacity="0.1" />
    <rect id="Rectangle_7" data-name="Rectangle 7" width="13.727" height="15.821" transform="translate(2639.694 -117.429)" fill="#ff8f00" opacity="0.1" />
    <rect id="Rectangle_8" data-name="Rectangle 8" width="13.727" height="15.821" transform="translate(2639.694 -84.636)" fill="#ff8f00" opacity="0.1" />
    <path id="Path_16" data-name="Path 16" d="M480.675,527.819h0v3.672H494.4V515.67H480.675Z" transform="translate(2159.019 -567.522)" fill="#ff8f00" opacity="0.1" />
    <path id="Path_17" data-name="Path 17" d="M481.17,588.63v12.221q6.89-.521,13.727-1.411V588.652Z" transform="translate(2158.524 -607.689)" fill="#ff8f00" opacity="0.1" />
    <rect id="Rectangle_9" data-name="Rectangle 9" width="58.826" height="1.16" transform="translate(2708.039 -96.102)" fill="#ff8f00" opacity="0.1" />
    <rect id="Rectangle_10" data-name="Rectangle 10" width="58.826" height="4.454" transform="translate(2708.039 -93.391)" fill="#ff8f00" opacity="0.1" />
    <rect id="Rectangle_11" data-name="Rectangle 11" width="58.826" height="7.164" transform="translate(2708.039 -74.338)" fill="#ff8f00" opacity="0.1" />
    <path id="Path_18" data-name="Path 18" d="M633.23,514.06v7.165h46.016q3-2.036,5.919-4.18c1.349-.989,2.7-2,4.045-2.98Z" transform="translate(2074.81 -566.635)" fill="#ff8f00" opacity="0.1" />
    <path id="Path_19" data-name="Path 19" d="M633.23,562.47v7.165h4.841q8.194-3.281,16.055-7.165Z" transform="translate(2074.81 -593.287)" fill="#ff8f00" opacity="0.1" />
    <rect id="Rectangle_12" data-name="Rectangle 12" width="11.578" height="10.297" transform="translate(2605.921 -129.874) rotate(180)" fill="#ff8f00" opacity="0.1" />
    <rect id="Rectangle_13" data-name="Rectangle 13" width="11.578" height="10.297" transform="translate(2856.66 -177.859) rotate(180)" fill="#ff8f00" opacity="0.1" />
    <rect id="Rectangle_14" data-name="Rectangle 14" width="11.578" height="10.297" transform="translate(2856.66 -153.939) rotate(180)" fill="#ff8f00" opacity="0.1" />
    <rect id="Rectangle_15" data-name="Rectangle 15" width="11.578" height="10.297" transform="translate(2856.66 -130.023) rotate(180)" fill="#ff8f00" opacity="0.1" />
    <rect id="Rectangle_16" data-name="Rectangle 16" width="11.578" height="10.297" transform="translate(2856.66 -106.102) rotate(180)" fill="#ff8f00" opacity="0.1" />
    <rect id="Rectangle_17" data-name="Rectangle 17" width="11.578" height="10.297" transform="translate(2856.66 -82.177) rotate(180)" fill="#ff8f00" opacity="0.1" />
    <rect id="Rectangle_18" data-name="Rectangle 18" width="11.578" height="10.297" transform="translate(2856.66 -58.261) rotate(180)" fill="#ff8f00" opacity="0.1" />
    <rect id="Rectangle_19" data-name="Rectangle 19" width="11.578" height="10.297" transform="translate(2561.711 -129.874) rotate(180)" fill="#ff8f00" opacity="0.1" />
    <rect id="Rectangle_20" data-name="Rectangle 20" width="11.578" height="10.297" transform="translate(2605.921 -104.48) rotate(180)" fill="#ff8f00" opacity="0.1" />
    <rect id="Rectangle_21" data-name="Rectangle 21" width="11.578" height="10.297" transform="translate(2561.711 -104.48) rotate(180)" fill="#ff8f00" opacity="0.1" />
    <rect id="Rectangle_22" data-name="Rectangle 22" width="11.578" height="10.297" transform="translate(2605.921 -79.08) rotate(180)" fill="#ff8f00" opacity="0.1" />
    <rect id="Rectangle_23" data-name="Rectangle 23" width="11.578" height="10.297" transform="translate(2561.711 -79.08) rotate(180)" fill="#ff8f00" opacity="0.1" />
    <rect id="Rectangle_24" data-name="Rectangle 24" width="11.578" height="10.297" transform="translate(2605.921 -53.681) rotate(180)" fill="#ff8f00" opacity="0.1" />
    <rect id="Rectangle_25" data-name="Rectangle 25" width="11.578" height="10.297" transform="translate(2561.711 -53.681) rotate(180)" fill="#ff8f00" opacity="0.1" />
    <rect id="Rectangle_26" data-name="Rectangle 26" width="11.578" height="10.297" transform="translate(2605.921 -28.277) rotate(180)" fill="#ff8f00" opacity="0.1" />
    <rect id="Rectangle_27" data-name="Rectangle 27" width="11.578" height="10.297" transform="translate(2561.711 -28.277) rotate(180)" fill="#ff8f00" opacity="0.1" />
    <path id="Path_20" data-name="Path 20" d="M290.074,572.449V565.81H278.5V571.5Z" transform="translate(2315.843 -578.985)" fill="#ff8f00" opacity="0.1" />
    <path id="Path_21" data-name="Path 21" d="M1004.42,276.26v5.892h39.629V276.26Zm35.683.373h3.232v5.151h-3.25Zm-3.946,0h3.25v5.151h-3.263Zm-3.937,0h3.25v5.151h-3.25Zm-3.946,0h3.25v5.151h-3.25Zm-3.942,0h3.272v5.151h-3.25Zm-3.946,0h3.25v5.151h-3.25Zm-3.946,0h3.25v5.151h-3.25Zm-3.942,0h3.25v5.151h-3.25Zm-3.942,0h3.25v5.151h-3.25Zm-3.942,0h3.25v5.151h-3.25Z" transform="translate(1870.457 -435.718)" fill="#ff8f00" opacity="0.1" />
    <path id="Path_22" data-name="Path 22" d="M1004.42,314.42v5.892h39.629V314.42Zm35.683.373h3.232v5.146h-3.25Zm-3.946,0h3.25v5.146h-3.263Zm-3.937,0h3.25v5.146h-3.25Zm-3.946,0h3.25v5.146h-3.25Zm-3.942,0h3.272v5.146h-3.25Zm-3.946,0h3.25v5.146h-3.25Zm-3.946,0h3.25v5.146h-3.25Zm-3.942,0h3.25v5.146h-3.25Zm-3.942,0h3.25v5.146h-3.25Zm-3.942,0h3.25v5.146h-3.25Z" transform="translate(1870.457 -456.727)" fill="#ff8f00" opacity="0.1" />
    <path id="Path_23" data-name="Path 23" d="M1004.42,352.57v5.888h39.629V352.57Zm35.683.369h3.232v5.151h-3.25Zm-3.946,0h3.25v5.151h-3.263Zm-3.937,0h3.25v5.151h-3.25Zm-3.946,0h3.25v5.151h-3.25Zm-3.942,0h3.272v5.151h-3.25Zm-3.946,0h3.25v5.151h-3.25Zm-3.946,0h3.25v5.151h-3.25Zm-3.942,0h3.25v5.151h-3.25Zm-3.942,0h3.25v5.151h-3.25Zm-3.942,0h3.25v5.151h-3.25Z" transform="translate(1870.457 -477.73)" fill="#ff8f00" opacity="0.1" />
    <path id="Path_24" data-name="Path 24" d="M1004.42,390.72v5.888h39.629V390.72Zm35.683.369h3.232v5.151h-3.25Zm-3.946,0h3.25v5.151h-3.263Zm-3.937,0h3.25v5.151h-3.25Zm-3.946,0h3.25v5.151h-3.25Zm-3.942,0h3.272v5.151h-3.25Zm-3.946,0h3.25v5.151h-3.25Zm-3.946,0h3.25v5.151h-3.25Zm-3.942,0h3.25v5.151h-3.25Zm-3.942,0h3.25v5.151h-3.25Zm-3.942,0h3.25v5.151h-3.25Z" transform="translate(1870.457 -498.732)" fill="#ff8f00" opacity="0.1" />
    <path id="Path_25" data-name="Path 25" d="M1004.42,428.87v5.9h37.261c.054-.121.108-.247.157-.369H1040.1v-5.16h3.232v1.281c.189-.548.369-1.1.526-1.654Zm31.737.373h3.25v5.146h-3.263Zm-3.937,0h3.25v5.146h-3.25Zm-3.946,0h3.25v5.146h-3.25Zm-3.942,0h3.272v5.146h-3.25Zm-3.946,0h3.25v5.146h-3.25Zm-3.946,0h3.25v5.146h-3.25Zm-3.942,0h3.25v5.146h-3.25Zm-3.942,0h3.25v5.146h-3.25Zm-3.942,0h3.25v5.146h-3.25Z" transform="translate(1870.457 -519.735)" fill="#ff8f00" opacity="0.1" />
    <path id="Path_26" data-name="Path 26" d="M1004.42,467v5.888h24.77c.144-.121.27-.252.4-.369h-1.317v-5.137h3.25V470.6l.7-.742v-2.472h2.153c.1-.126.2-.252.306-.369Zm19.911.368h3.272v5.151h-3.25Zm-3.946,0h3.25v5.151h-3.25Zm-3.946,0h3.25v5.151h-3.25Zm-3.942,0h3.25v5.151h-3.25Zm-3.942,0h3.25v5.151h-3.25Zm-3.942,0h3.25v5.151h-3.25Z" transform="translate(1870.457 -540.727)" fill="#ff8f00" opacity="0.1" />
    <path id="Path_27" data-name="Path 27" d="M1004.42,505.18v3.564a1.4,1.4,0,0,0,.193-.067v-3.146h3.25v1.915l.692-.283v-1.614h3.25v.18c.382-.175.76-.359,1.133-.544Z" transform="translate(1870.457 -561.747)" fill="#ff8f00" opacity="0.1" />
    <path id="Path_28" data-name="Path 28" d="M425.33,238.518h.022Zm24.694,106.887h0Zm26.357-53.711h0c.072-.229.139-.449.216-.692C476.52,291.236,476.448,291.465,476.38,291.694Zm-51.05-53.176h.022ZM653.124,184.29v1.546h18.19V184.29Zm-203.1,161.115h0Zm26.357-53.711h0c.072-.229.139-.449.216-.692C476.52,291.236,476.448,291.465,476.38,291.694Zm-51.05-53.176h.022Zm24.694,106.887h0Zm26.357-53.711h0c.072-.229.139-.449.216-.692C476.52,291.236,476.448,291.465,476.38,291.694Z" transform="translate(2189.265 -385.086)" fill="#ff8f00" opacity="0.1" />
    <ellipse id="Ellipse_1" data-name="Ellipse 1" cx="15.543" cy="1.721" rx="15.543" ry="1.721" transform="translate(2859.469 99.618)" fill="#ff8f00" opacity="0.1" />
    <path id="Path_29" data-name="Path 29" d="M658.014,499.047l-7.767-.427-.526-22.307L649.6,471l8.194-1.51.054,6.85Z" transform="translate(2111.539 -525.958)" fill="#d48a9b" />
    <path id="Path_30" data-name="Path 30" d="M603.6,525.024l-39.912,24.815-.863,7.551,4.315.216v-5.394l26.105-14.67-31.5,39.05v6.041h5.178l-.432-6.688,36.461-41.423,4.531.431,38.407,43.58.863,7.34,5.178.216-.863-7.556-30.42-37.971,20.28,14.023.432,6.041,4.1.216-.432-7.335L606.409,523.73Z" transform="translate(2159.904 -555.819)" fill="#d48a9b" />
    <path id="Path_31" data-name="Path 31" d="M638.2,393.9a71.2,71.2,0,0,0,9.4-15.322c2.746-6.077,5.758-13.093,5.987-15.169.449-3.883,11.434-11.65,23.516-12.082,7.879-.283,20.154-6.432,27.75-10.679a56.484,56.484,0,0,1,23.282-7.191c8.886-.67,17.242,1.074,13.035,11.385l-56.5,68.418s-48.183,8.49-51.154-5.16a11.353,11.353,0,0,0-.688-2C632.268,404.8,632.12,401.437,638.2,393.9Z" transform="translate(2075.169 -467.137)" fill="#ff8f00" />
    <path id="Path_32" data-name="Path 32" d="M648.242,399.884a73.3,73.3,0,0,0,9.5-15.462c2.562-5.681,5.281-12.05,5.5-13.978.413-3.708,10.94-11.129,22.5-11.542,7.538-.27,19.282-6.14,26.546-10.2a54.121,54.121,0,0,1,22.284-6.85c8.5-.638,16.5,1.029,12.486,10.877l-44.816,65.622s-55.284,7.843-58.21-5.133a12.966,12.966,0,0,0-.688-2.014C642.826,409.92,642.754,406.769,648.242,399.884Z" transform="translate(2069.367 -471.763)" fill="#dda2a6" opacity="0.2" />
    <path id="Path_33" data-name="Path 33" d="M759.618,512.255c-2.6,0-5.335,0-8.126-.027l-.121-5.313,8.194-1.506Z" transform="translate(2009.769 -561.873)" opacity="0.1" />
    <g id="Group_2" data-name="Group 2" transform="translate(2721.654 -22.591)" opacity="0.1">
      <path id="Path_34" data-name="Path 34" d="M713.08,572.323,692.8,558.3l2.324,2.9,17.956,12.419.432,6.041,4.1.216-.076-1.3-4.023-.211Z" transform="translate(-633.898 -552.259)" />
      <path id="Path_35" data-name="Path 35" d="M573.75,566.251v1.294l24.195-13.6,1.91-2.369Z" transform="translate(-568.356 -548.56)" />
      <path id="Path_36" data-name="Path 36" d="M561.75,651.9v1.294h5.178l-.085-1.294Z" transform="translate(-561.75 -603.789)" />
      <path id="Path_37" data-name="Path 37" d="M568.465,595.967l-4.171-.207-.144,1.285,4.315.216Z" transform="translate(-563.071 -572.882)" />
      <path id="Path_38" data-name="Path 38" d="M652.571,596.211l-.863-7.34L613.3,545.291l-4.531-.431L572.31,586.283l.076,1.209,36.384-41.337,4.531.432,38.407,43.58.863,7.34,5.178.216-.148-1.3Z" transform="translate(-567.564 -544.86)" />
    </g>
    <path id="Path_39" data-name="Path 39" d="M759.52,426.06s10.1,7.389,5.681,7.475S759.52,426.06,759.52,426.06Z" transform="translate(2005.283 -518.188)" opacity="0.1" />
    <path id="Path_40" data-name="Path 40" d="M665.2,421.258s16.72-1.294,22.977-13.376c0,0,12.729-25.247,23.089-28.051s29.557-9.061,37.539-18.77,11.331-17.152,11.331-17.152,2.058,7.857-4.427,17.12-8.846,23.529-13.376,38.654-6.257,21.125-14.455,22.024c-6.18.652-38.856.324-54.48,0C668.288,421.569,665.2,421.258,665.2,421.258Z" transform="translate(2057.208 -472.962)" fill="#ff8f00" />
    <path id="Path_41" data-name="Path 41" d="M665.2,421.258s16.72-1.294,22.977-13.376c0,0,12.729-25.247,23.089-28.051s29.557-9.061,37.539-18.77,11.331-17.152,11.331-17.152,2.058,7.857-4.427,17.12-8.846,23.529-13.376,38.654-6.257,21.125-14.455,22.024c-6.18.652-38.856.324-54.48,0C668.288,421.569,665.2,421.258,665.2,421.258Z" transform="translate(2057.208 -472.962)" fill="#dda2a6" opacity="0.2" />
    <path id="Path_42" data-name="Path 42" d="M674.56,424.264s15.983-1.254,21.961-12.954c0,0,12.171-24.442,22.069-27.157s28.253-8.778,35.885-18.176A82.741,82.741,0,0,0,765.3,349.37s1.955,7.641-4.229,16.608-8.454,22.77-12.787,37.4-5.978,20.473-13.817,21.309c-5.906.629-37.139.31-52.075,0C677.513,424.588,674.56,424.264,674.56,424.264Z" transform="translate(2052.056 -475.968)" fill="#ff8f00" />
    <path id="Path_43" data-name="Path 43" d="M645.76,495s8.738,3.344,13.7,1.51,17.26-7.227,17.26-7.227S656.008,490.592,645.76,495Z" transform="translate(2067.911 -552.993)" opacity="0.1" />
    <path id="Path_44" data-name="Path 44" d="M536.808,747.024s-25.116-1.348-31.238-4.944-14.787-3.6-14.832-3.6l-100.006-21.8L349.156,706.8l-7.416-.975,24.5-28.029.746-.324,36.11-15.619s16.181.9,19.376,11.443a12.736,12.736,0,0,1,.449,2.274,13.2,13.2,0,0,1-2.553,9.232,19.576,19.576,0,0,0-3.34,6.4,3.788,3.788,0,0,0,.449,3.236,26.383,26.383,0,0,0,4.441,3.546c8.8,5.843,31.063,15.47,69.946.724,0,0,16.63-16.406,29.215-9.439S536.808,747.024,536.808,747.024Z" transform="translate(2235.285 -647.999)" fill="#e1dee5" />
    <path id="Path_45" data-name="Path 45" d="M422.549,691.2a3.788,3.788,0,0,0,.449,3.236,26.387,26.387,0,0,0,4.441,3.546l-75.7,5.668,20.747-26.181L408.6,661.85s16.181.9,19.376,11.443a12.733,12.733,0,0,1,.449,2.274,13.2,13.2,0,0,1-2.553,9.232A19.879,19.879,0,0,0,422.549,691.2Z" transform="translate(2229.779 -647.999)" opacity="0.1" />
    <path id="Path_46" data-name="Path 46" d="M229.482,461.94l62.026,1.348v74.247l-58.88,39.917L218.47,564.418l2.922-43.149-2.922-40.227Z" transform="translate(2348.891 -521.801)" fill="#a36468" />
    <path id="Path_47" data-name="Path 47" d="M266.24,442.928l72.418-22.316a10.972,10.972,0,0,1,4.023-.449l173,12.625a81.72,81.72,0,0,1,41.2,14.531A68.989,68.989,0,0,1,584.3,485.7a73.285,73.285,0,0,1-.742,41.274l-15.282,49.441s11.461-107.422-102.928-112.816Z" transform="translate(2276.85 -514.925)" fill="#d9d6df" />
    <path id="Path_48" data-name="Path 48" d="M271.087,489.12V608.377s-19.844-2.791-23.372-6.666c-2.895-3.178-19.664-12.136-26.941-21.363a15.4,15.4,0,0,1-3.173-6.054c-2.436-11.093-12.36-37.306-12.36-37.306l2.7-25.62,11.237-16.63,21.8-9.888h16.855Z" transform="translate(2310.433 -550.554)" fill="#b8797d" />
    <path id="Path_49" data-name="Path 49" d="M241.144,497.85s-32.254,20.226-25.2,52.772c.575,2.652,1.074,5.317,1.4,8.014,1.29,10.526,9.03,40.776,55.257,54.727v3.146L253,611.039l-13.313-7.34-10.162-9.115L217.1,579.428l-5.767-12.36-2.112-16.28L208,532.2l2.971-15.943,7.007-10.374,8.54-6.639Z" transform="translate(2308.913 -557.711)" fill="#d9d6df" />
    <path id="Path_50" data-name="Path 50" d="M271.081,489.1V508.07c-14.068,1.528-57.626,10.338-49.891,60.678l-.427,11.56a15.394,15.394,0,0,1-3.173-6.054c-2.436-11.093-12.36-37.306-12.36-37.306l2.7-25.62,11.237-16.63,21.8-9.888h16.855Z" transform="translate(2310.438 -550.532)" opacity="0.1" />
    <path id="Path_51" data-name="Path 51" d="M510.694,698.816a19.576,19.576,0,0,0-3.339,6.4c-1.96-2.247-2.382-4.832.449-6.877,3.546-2.58,4.728-7.057,4.994-11.03a12.732,12.732,0,0,1,.449,2.274A13.2,13.2,0,0,1,510.694,698.816Z" transform="translate(2144.974 -662.016)" fill="#fff" opacity="0.1" />
    <path id="Path_52" data-name="Path 52" d="M810.633,626.715l-8.54,28.991-19.327,18.878L758.5,679.527l-37.755-6.742V538.62s6.517-4.27,7.191-4.27,18.878,2.922,18.878,2.922l41.216,29.561,1.708,1.227,18.428,27.417Z" transform="translate(2026.632 -577.806)" fill="#b8797d" />
    <path id="Path_53" data-name="Path 53" d="M618.97,495.44V635.224l3.641.652V495.44Z" transform="translate(2128.402 -540.244)" fill="#a36468" />
    <path id="Path_54" data-name="Path 54" d="M788.834,576.178c-26.968-22.159-56.948-25.417-68.094-25.822V538.67s6.517-4.27,7.191-4.27,18.878,2.922,18.878,2.922l41.216,29.561Z" transform="translate(2026.632 -577.833)" opacity="0.1" />
    <path id="Path_55" data-name="Path 55" d="M424.759,487.465,255.837,469.037l-18.985-1.007a39.018,39.018,0,0,0-31.557,13.192c-9.888,11.371-17.363,31.431-6.445,65.874,0,0,11.385,44.646,66.521,54.237l160.208,36.3c3.551.8,7.057,1.8,10.517,2.926,14.545,4.778,63.824,17.156,87.039-24.923a70.9,70.9,0,0,0,7.272-47.446C524.819,538.574,503.726,488.31,424.759,487.465Zm82.76,126.25c-21.664,35.292-66.305,24.788-79.726,20.644-3.286-1.016-6.612-1.9-9.978-2.62l-147.991-31.66c-50.987-8.373-61.518-47.356-61.518-47.356-8.607-25.62-4.845-42.151,2.112-52.614a37.431,37.431,0,0,1,33.112-16.414l17.493.9,151.092,20.185c3.056.409,6.135.679,9.219.782,67.191,2.279,88.1,39.225,93.408,64.687A59.632,59.632,0,0,1,507.519,613.715Z" transform="translate(2316.918 -541.258)" fill="#e1dee5" />
    <path id="Path_56" data-name="Path 56" d="M103.674,384.482c5.533,3.7,13.933,1.942,13.933,1.942s12.67-6,16.414-6,12.85-3.708,12.85-3.708l-.31-2.5-.926-7.529c5.767,4.495,12.176,2.944,15.331,2.616,3.389-.351,21.5-11.115,23.242-11.825a4.6,4.6,0,0,0,1.587-1.6h0a40.8,40.8,0,0,0,3.065-5.6h0c1.133-1,1.96-1.8,1.9-1.973a13.609,13.609,0,0,1,1.11-2.966,14.559,14.559,0,0,0,5.492-1.978,4.8,4.8,0,0,0,1.8-3.883s17.669-17.821,15.345-25.233,5.713-7.591,5.713-7.591,12.311-5.295,14.023-8.468c1.056-1.955,10.293-6.248,17.241-9.259l.854-.369c2.7,5.91,16.4,1.348,19.093-1.137,2.854-2.647,11.237-3.883,11.237-3.883s.36-34.609,3.034-39c1.272-2.09,1.578-8.922,1.546-15.52v-.7c3.749-.733,12.666-2.427,16.806-2.836,2.625-.261,5.362-1.9,7.461-3.488l.247.31a5.123,5.123,0,0,0,2.279.373,3.487,3.487,0,0,0,2-.373c1.609-.9,7.5-2.647,9.637-3.528s-.355-7.236-1.96-8.472-2.7-2.823-1.8-3.528-2.139-2.472-3.924-2.827a58.459,58.459,0,0,1-7.138-2.823s-1.964-4.045-5.173-4.045-7.5-3.178-7.5-3.178c-.175-1.411-3.569-1.587-3.569-1.587s-12.846-9.888-14.99-8.648-8.027-1.942-8.027-1.942-7.223.809-8.922-.521h0a2,2,0,0,0-.449-1.2c-.382-1.2-2.247-2.832-4.045-4.194a15.914,15.914,0,0,0,.207-2.553,9.968,9.968,0,0,0-.04-1.1v-.184l.256-2.486a5.133,5.133,0,0,1,.62-2.337c.3-.449.746-.831,1.083-1.276a3.173,3.173,0,0,0,.216-.328l.054-.094a2.919,2.919,0,0,0,.135-.265l.04-.09a4.316,4.316,0,0,0,.229-.755v-.058c.022-.117.04-.234.054-.355a.2.2,0,0,1,0-.049,7.53,7.53,0,0,0-.4-3.029c-.535-1.668-1.371-3.277-1.461-5.016a15.525,15.525,0,0,0-.09-2.589c-.449-1.928-2.414-3.146-4.324-3.955a24,24,0,0,1-6.086-3.96c-1.8-1.393-4.773-.692-7.039-.548-5.178.333-10.288,1.892-15.16,3.5a15.279,15.279,0,0,0-5.295,2.629,5.843,5.843,0,0,0-1.937,3.272h0a4.279,4.279,0,0,0-.058.9v.076a.976.976,0,0,0,.04.342.831.831,0,0,0,0,.112,2.654,2.654,0,0,0,.1.4h0c.207.652.589,1.241.809,1.888a3.691,3.691,0,0,1,.121.449v.045a4.1,4.1,0,0,1,.072.449h0c.2,1.6-.4,3.281-.656,4.917-.036.229-.063.449-.081.7h0a8.378,8.378,0,0,0,.247,2.818.087.087,0,0,0,0,.031c.027.112.067.225.1.333a1.353,1.353,0,0,0,.045.144c.031.094.072.189.108.279l.076.189c.036.081.076.162.117.243s.067.135.1.2a2.453,2.453,0,0,0,.121.216c.04.072.085.139.13.207s.085.13.135.193.1.139.157.207l.139.171.189.2.148.148.22.189c.054.04.1.085.153.121s.184.13.279.189l.13.09c.144.085.3.162.449.234,1.025.449,2.319.634,2.935,1.537a1.9,1.9,0,0,1,.3.7v.337a14.642,14.642,0,0,0,.09,1.546,5.719,5.719,0,0,0,.049.836,2.4,2.4,0,0,0,.171.607,16.037,16.037,0,0,0,5.394,9.088c.054.274.117.593.184.953a17.849,17.849,0,0,1-5.191,2.7c-4.283,1.254-10.338,7.039-10.338,7.039s-3.011,21.7-3.735,24.352-1.258,12.886-1.258,12.886a29.1,29.1,0,0,1-1.8,6.351c-.76,1.492-.62,7.906,1.492,11.8a9.841,9.841,0,0,1-1.312,2.139c-4.283,4.944-17.134,4.764-21.417,4.764-3.942,0-5.16,2.391-5.326,2.769-7.843,2.247-33.238,9.475-36.249,10.787-3.569,1.56-5.533,16.972-5.533,16.972s-7.457,25.584-7.1,28.937-2.5,12.693-2.5,12.693,0,10.558-1.209,11.273a.112.112,0,0,1-.036.022c-1.25.53-1.074,5.65-1.074,5.65s.921.265,2.355.629a42.023,42.023,0,0,1-2.89,8.774c-.557-.706-1.1-1-1.425-.18-.9,2.247-14.275,18.131-17.668,18.131-1.614,0-4.283,1.321-6.041,3.106C101.588,380.024,100.77,382.545,103.674,384.482Zm61.374-91.947c15.169,1.411,31.409-1.074,31.409-1.074a36.19,36.19,0,0,1-2.319,6.194c-1.07,1.766-4.108,11.825-4.108,13.933s-4.818,20.293-6.243,21.174a5.314,5.314,0,0,0-1.555,2.247,21.1,21.1,0,0,0-.944,2.7q.031.688.121,1.308c-1.065.975-2.193,2-3.2,2.908h0s-6.382,3.551-8.54,5.492-12.136,4.324-12.136,4.324a62.127,62.127,0,0,0-7.191,3.663c-3.1,1.865-6.194,4.238-7,6.58.351-3.946.921-8.7,1.3-11.718l.566-.023c5-.31,4.256-5.083,3.991-6.266-.036-.171-.063-.265-.063-.265,3.569-3.883,11.6-32.811,10.526-36s.9-6,1.317-6,1-3.528.112-5.47S165.048,292.535,165.048,292.535Zm122.659-77.856-.948.234v-.2S287.1,214.71,287.707,214.679Zm-51.85-26.631c-.144.18-.288.351-.449.517l-.184.189v-.98C235.439,187.859,235.646,187.963,235.857,188.048Zm-17.875,34.24.063.993s-.094.607-.274,1.645Zm82.005-9.861-3.115.535c.449-.166.876-.346,1.3-.548a2.989,2.989,0,0,1,.993-.27,5.7,5.7,0,0,1,1.16.247,2.153,2.153,0,0,0-.337.036Z" transform="translate(2367.394 -363.166)" fill="url(#linear-gradient)" />
    <path id="Path_57" data-name="Path 57" d="M284.35,572.582s-3.6,7.421-3.411,7.947-7.708,6.823-7.708,6.823l-8.58-6.126.9-4.207s9.632-8.679,10.338-9.682S284.35,572.582,284.35,572.582Z" transform="translate(2277.725 -595.906)" fill="#efb7b9" />
    <path id="Path_58" data-name="Path 58" d="M198.148,606.229c5.955,5.78,12.958,4.045,16.289,3.681s21.1-11.034,22.806-11.735a4.652,4.652,0,0,0,1.56-1.591h0a40.41,40.41,0,0,0,3.007-5.56c-.117.031-5.942,1.7-7.412,0,0,0-2.454-3.007-2.98-3.007s-.04-5.277-.04-5.277-6.266,3.524-8.365,5.452S211.1,592.48,211.1,592.48a60.242,60.242,0,0,0-7.048,3.636C199.416,598.948,194.741,602.944,198.148,606.229Z" transform="translate(2314.98 -604.446)" fill="#67647e" />
    <path id="Path_59" data-name="Path 59" d="M198.148,622.613c5.955,5.78,12.958,4.045,16.289,3.681s21.1-11.034,22.806-11.735a4.651,4.651,0,0,0,1.56-1.591c-2.072-1.236-15.61,7.371-19.4,8.949s-13.376.7-18.819-1.578c-2.7-1.137.036-4.63,3.461-7.839C199.416,615.332,194.741,619.327,198.148,622.613Z" transform="translate(2314.98 -620.83)" opacity="0.1" />
    <path id="Path_60" data-name="Path 60" d="M179.686,591.374s-2.495,18.738-1.861,21.192-15.655-8.405-15.655-8.405,5.7-11.744,4.045-14.441S179.686,591.374,179.686,591.374Z" transform="translate(2334.144 -607.803)" fill="#efb7b9" />
    <path id="Path_61" data-name="Path 61" d="M166.449,485.423s10.158,2.975,15.758,2.625c4.908-.306,4.176-5.043,3.919-6.216-.036-.166-.063-.261-.063-.261,3.5-3.856,11.385-32.577,10.338-35.728s.854-5.933,1.3-5.933.984-3.506.108-5.43,3.856-3.677,3.856-3.677c14.886,1.4,30.824-1.07,30.824-1.07a36.087,36.087,0,0,1-2.279,6.149c-1.052,1.753-4.045,11.731-4.045,13.835s-4.728,20.141-6.131,21.017a5.21,5.21,0,0,0-1.524,2.247,21.023,21.023,0,0,0-.926,2.7c.526,11.736,13.835,7.191,15.763,5.6a5.171,5.171,0,0,0,.746-.764,4.9,4.9,0,0,0,1-3.092s17.34-17.686,15.062-25.044,5.6-7.529,5.6-7.529,12.086-5.254,13.767-8.409c1.038-1.937,10.1-6.194,16.922-9.187,4.274-1.874,7.668-3.245,7.668-3.245l-2.841-10.185-2.247-8.032-4.216-1.582-13.484-5.07-24.19-3.393-2.216.288-23.5,3.043s-34.312,9.816-37.818,11.354-5.43,16.841-5.43,16.841-7.353,25.395-6.994,28.739-2.454,12.585-2.454,12.585,0,10.477-1.191,11.187a.062.062,0,0,1-.036,0C166.274,480.362,166.449,485.423,166.449,485.423Z" transform="translate(2331.793 -501.502)" fill="#444053" />
    <path id="Path_62" data-name="Path 62" d="M244.78,456.728c14.886,1.4,30.824-1.07,30.824-1.07,1.052-3.313,15.772-12.419,15.772-12.419C279.3,440.264,244.78,456.728,244.78,456.728Z" transform="translate(2288.664 -527.448)" opacity="0.1" />
    <path id="Path_63" data-name="Path 63" d="M280.24,570.159c.526,11.736,13.835,7.191,15.763,5.6a5.171,5.171,0,0,0,.746-.764c-4.652,1.713-12.9,3.038-15.583-7.52A21.022,21.022,0,0,0,280.24,570.159Z" transform="translate(2269.143 -596.045)" fill="#444053" />
    <path id="Path_64" data-name="Path 64" d="M166.449,588.367s10.158,2.976,15.758,2.625c4.908-.306,4.176-5.043,3.919-6.216-5.142-.162-14-.643-18.594-2.036a.064.064,0,0,1-.036,0C166.274,583.306,166.449,588.367,166.449,588.367Z" transform="translate(2331.793 -604.446)" fill="#444053" />
    <path id="Path_65" data-name="Path 65" d="M280.24,570.159c.526,11.736,13.835,7.191,15.763,5.6a5.171,5.171,0,0,0,.746-.764c-4.652,1.713-12.9,3.038-15.583-7.52A21.022,21.022,0,0,0,280.24,570.159Z" transform="translate(2269.143 -596.045)" opacity="0.1" />
    <path id="Path_66" data-name="Path 66" d="M166.449,588.367s10.158,2.976,15.758,2.625c4.908-.306,4.176-5.043,3.919-6.216-5.142-.162-14-.643-18.594-2.036a.064.064,0,0,1-.036,0C166.274,583.306,166.449,588.367,166.449,588.367Z" transform="translate(2331.793 -604.446)" opacity="0.1" />
    <path id="Path_67" data-name="Path 67" d="M108.455,642.473c5.43,3.677,13.664,1.924,13.664,1.924s12.432-5.951,16.113-5.951,12.594-3.681,12.594-3.681l-.3-2.477L149.078,620.4s-13.641-.351-14.19-1.578c0,0-2.45-6.032-3.326-3.8S117.552,633,114.222,633c-1.587,0-4.207,1.313-5.928,3.083C106.419,638.05,105.615,640.549,108.455,642.473Z" transform="translate(2364.738 -621.947)" fill="#67647e" />
    <path id="Path_68" data-name="Path 68" d="M215.55,446.41s11.385,7.191,8.234,8.756S215.55,446.41,215.55,446.41Z" transform="translate(2304.757 -529.392)" opacity="0.1" />
    <path id="Path_69" data-name="Path 69" d="M205,477.19s9.807,9.313,6.131,9.56S205,477.19,205,477.19Z" transform="translate(2310.565 -546.337)" opacity="0.1" />
    <path id="Path_70" data-name="Path 70" d="M181.65,543s4.98,9.362,3.106,10.985S181.65,543,181.65,543Z" transform="translate(2323.42 -582.568)" opacity="0.1" />
    <path id="Path_71" data-name="Path 71" d="M303.475,556.564c-1.753,1.748,16.63-5.78,12.432-6.131S303.475,556.564,303.475,556.564Z" transform="translate(2256.416 -586.652)" opacity="0.1" />
    <path id="Path_72" data-name="Path 72" d="M385.44,242.7l.589-.085c2.175-.333,10.073-1.573,17.156-3.11,1.726-.378,3.4-.769,4.944-1.173,5.425-1.42,9.066-2.953,6.742-4.212a12.411,12.411,0,0,1-5.546-7.3c-.081-.256-.157-.5-.229-.751a19.467,19.467,0,0,1-.706-4.045s-19.777-7.007-15.938,0c1.892,3.438.62,6.243-1.164,8.207a15.406,15.406,0,0,1-4.265,3.178Z" transform="translate(2211.226 -404.14)" fill="#efb7b9" />
    <path id="Path_73" data-name="Path 73" d="M379.652,259.76s-7.079,5.079-14.311.876-16.689,37.13-16.689,37.13l-9.807,24.168s-6.351,5.254,1.555,7.533,25.444-2.279,29.9,4.378,12.886,7.7,13.749,7.7,4.2-25.049,4.2-25.049l.867-36.254Z" transform="translate(2238.207 -426.634)" opacity="0.1" />
    <path id="Path_74" data-name="Path 74" d="M341.158,326.348c7.906,2.274,25.449-2.279,29.9,4.378a17.106,17.106,0,0,0,7.546,6.081,19.775,19.775,0,0,0,6.216,1.645c.112,0,.279-.449.472-1.254,1.232-5.07,3.726-23.795,3.726-23.795l.863-36.254-8.32-18.046-1.137-2.463a15.011,15.011,0,0,1-3.6,1.757,12.662,12.662,0,0,1-10.706-.9c-2.122-1.232-4.436,1.456-6.643,5.87-5.322,10.625-10.046,31.26-10.046,31.26l-9.816,24.2a8.325,8.325,0,0,0-.665.638C337.562,320.923,334.95,324.559,341.158,326.348Z" transform="translate(2237.782 -424.917)" fill="#f3f5f9" />
    <path id="Path_75" data-name="Path 75" d="M426.641,315.559a45.945,45.945,0,0,0-.234,9.223,108.02,108.02,0,0,0,1.645,13.035,5.141,5.141,0,0,0,.216.8c4.274-1.874,7.668-3.245,7.668-3.245L433.1,325.182c1.231-5.07,3.726-23.795,3.726-23.795l.863-36.254-8.32-18.037c5.425-1.42,9.066-2.953,6.742-4.211-3.371-1.829-4.994-5.3-5.776-8.054a29.236,29.236,0,0,1-4.967,5.358l-.108.09-.629,6.113-.193,1.879-.4,3.9s1.928,46.061,3.326,48.691.7,7.7-.521,13.659C426.758,314.853,426.713,315.2,426.641,315.559Z" transform="translate(2189.981 -412.91)" opacity="0.1" />
    <path id="Path_76" data-name="Path 76" d="M428.38,300.293c-1.223,5.955-.175,15.763,1.227,23.291s16.289,2.629,19.093,0,11.03-3.852,11.03-3.852.351-34.326,2.98-38.7c1.245-2.077,1.546-8.854,1.515-15.4-.022-5.879-.315-11.574-.422-13.484-.027-.449-.04-.7-.04-.7s11.38-19.264,11.205-20.675-3.5-1.573-3.5-1.573-12.585-9.807-14.711-8.585-7.884-1.924-7.884-1.924-7.322.832-8.837-.584a.773.773,0,0,1-.27-.643c.171-2.247-7.461-7.03-7.7-7.191,6.436,5.789-3.969,14.711-5.151,15.691l-.108.09-1.227,11.888s1.928,46.061,3.326,48.691S429.607,294.338,428.38,300.293Z" transform="translate(2189.128 -399.389)" fill="#67647e" />
    <circle id="Ellipse_2" data-name="Ellipse 2" cx="0.876" cy="0.876" r="0.876" transform="translate(2617.31 -150.006)" fill="#444053" />
    <path id="Path_77" data-name="Path 77" d="M429.33,227.492l5.322,5.146,7.8-13.034a.773.773,0,0,1-.27-.643c.171-2.247-7.466-7.03-7.7-7.191C440.917,217.591,430.53,226.512,429.33,227.492Z" transform="translate(2187.063 -400.214)" opacity="0.1" />
    <circle id="Ellipse_3" data-name="Ellipse 3" cx="0.876" cy="0.876" r="0.876" transform="translate(2619.063 -121.986)" opacity="0.1" />
    <circle id="Ellipse_4" data-name="Ellipse 4" cx="0.876" cy="0.876" r="0.876" transform="translate(2619.063 -122.337)" fill="#444053" />
    <path id="Path_78" data-name="Path 78" d="M428.55,225.932l5.322,5.146,7.8-13.035a.773.773,0,0,1-.27-.643c.171-2.247-7.461-7.03-7.7-7.191C440.137,216.031,429.732,224.948,428.55,225.932Z" transform="translate(2187.493 -399.355)" fill="#67647e" />
    <rect id="Rectangle_28" data-name="Rectangle 28" width="12.19" height="25.754" rx="1.7" transform="translate(2622.71 -124.118) rotate(-178.69)" fill="#d1d9ec" />
    <rect id="Rectangle_29" data-name="Rectangle 29" width="12.19" height="25.754" rx="1.7" transform="translate(2622.773 -123.549) rotate(-178.69)" fill="#dfe6f5" />
    <circle id="Ellipse_5" data-name="Ellipse 5" cx="1.915" cy="1.915" r="1.915" transform="translate(2615.377 -143.808)" fill="#fff" />
    <path id="Path_79" data-name="Path 79" d="M284.52,312.776c4.378,1.928,33.1-3.146,37.306-4.378s10.338-10.684,7.358-17.529,1.047-13.484,1.047-13.484,6.293-13.484,7.708-16.113a121.074,121.074,0,0,0,4.728-11.556,1.052,1.052,0,0,0-.247-.8c-1.142-1.721-5.546-4.787-5.546-4.787-1.236.449-1.389-3.1-1.348-5.7.027-1.456.112-2.616.112-2.616s-.58.589-1.528,1.393c-.346.292-.742.616-1.182.948a18.171,18.171,0,0,1-5.492,3.016c-4.2,1.245-10.158,6.985-10.158,6.985l1.753,26.9s-4.045,25.3-8.234,30.2-16.815,4.728-21.017,4.728S284.52,312.776,284.52,312.776Z" transform="translate(2266.786 -413.449)" opacity="0.1" />
    <path id="Path_80" data-name="Path 80" d="M283.74,310.458c4.378,1.924,33.1-3.146,37.306-4.382s10.338-10.684,7.358-17.529,1.047-13.484,1.047-13.484,6.292-13.484,7.708-16.113a121.087,121.087,0,0,0,4.728-11.556,1.056,1.056,0,0,0-.247-.8c-1.151-1.717-5.533-4.773-5.533-4.773-1.236.449-1.389-3.092-1.348-5.695.027-1.461.112-2.62.112-2.62s-.58.589-1.528,1.4c-.346.288-.742.611-1.182.944a18.171,18.171,0,0,1-5.519,3.016c-4.2,1.245-10.158,6.985-10.158,6.985l1.753,26.9s-4.045,25.3-8.234,30.2-16.81,4.728-21.017,4.728S283.74,310.458,283.74,310.458Z" transform="translate(2267.216 -412.177)" fill="#67647e" />
    <path id="Path_81" data-name="Path 81" d="M389.73,235s.166.921.449,2.342c.944,4.809,3.191,15.309,4.814,14.9,1.164-.292,3.146-2.351,4.656-4.131-1.137-1.735-5.533-4.8-5.533-4.8-1.236.449-1.389-3.092-1.348-5.695l-1.416-1.223Z" transform="translate(2208.865 -413.003)" opacity="0.1" />
    <path id="Path_82" data-name="Path 82" d="M390.51,233.47s.166.921.449,2.342c.944,4.809,3.191,15.309,4.814,14.9,1.164-.292,3.146-2.351,4.656-4.131-1.16-1.73-5.542-4.787-5.542-4.787-1.236.449-1.389-3.092-1.348-5.695l-1.416-1.223Z" transform="translate(2208.435 -412.161)" fill="#67647e" />
    <path id="Path_83" data-name="Path 83" d="M356.145,335.243s8.76-1.748,11.21-5.6,19.134-7.191,17.08-3.146-17.08,17.21-17.08,17.21l-6.522,9.335-8.711-2.211-3.672-7.142Z" transform="translate(2231.59 -462.362)" fill="#efb7b9" />
    <path id="Path_84" data-name="Path 84" d="M399.592,370.45s-8.481,3.146-9.758,7.353S399.592,370.45,399.592,370.45Z" transform="translate(2208.864 -487.573)" opacity="0.1" />
    <path id="Path_85" data-name="Path 85" d="M411.167,381.34s.773,4.373-9.857,4.045Z" transform="translate(2202.489 -493.568)" opacity="0.1" />
    <path id="Path_86" data-name="Path 86" d="M510.119,256.211l3.856-.351s4.2,3.146,7.353,3.146,5.079,4.045,5.079,4.045a56.554,56.554,0,0,0,7.007,2.8c1.753.351,4.728,2.1,3.852,2.8s.175,2.279,1.753,3.5,4.045,7.533,1.924,8.409-7.879,2.625-9.439,3.5a4.346,4.346,0,0,1-3.5,0s-9.277-12.086-14.01-9.807-11.214,2.265-11.214,2.265L497.7,265.847Z" transform="translate(2149.423 -424.487)" opacity="0.1" />
    <path id="Path_87" data-name="Path 87" d="M343.167,316.632a4.7,4.7,0,0,0,3.268,2.27,24.722,24.722,0,0,0,10.2-.944s-17.642-5.6-.656-19.233h-4.54l-1.528-.575.692-3.627,1-32.717-3.677-.876s-2.962,21.543-3.668,24.168-1.236,12.787-1.236,12.787a29.359,29.359,0,0,1-1.753,6.293C340.471,305.769,340.691,312.893,343.167,316.632Z" transform="translate(2235.772 -427.279)" fill="#67647e" />
    <path id="Path_88" data-name="Path 88" d="M347.59,362.211a4.688,4.688,0,0,0,3.268,2.27,24.721,24.721,0,0,0,10.2-.944s-17.642-5.6-.656-19.242h-4.535l-1.515-.575C351.82,348.147,347.909,356.008,347.59,362.211Z" transform="translate(2232.064 -472.857)" opacity="0.1" />
    <path id="Path_89" data-name="Path 89" d="M346,362.222a4.7,4.7,0,0,0,3.268,2.27,24.72,24.72,0,0,0,10.2-.944s-17.642-5.6-.656-19.233h-4.54l-1.528-.575C350.261,348.158,346.333,356.019,346,362.222Z" transform="translate(2232.939 -472.868)" fill="none" />
    <path id="Path_90" data-name="Path 90" d="M346,362.222a4.7,4.7,0,0,0,3.268,2.27,24.72,24.72,0,0,0,10.2-.944s-17.642-5.6-.656-19.233h-4.54l-1.528-.575C350.261,348.158,346.333,356.019,346,362.222Z" transform="translate(2232.939 -472.868)" fill="#67647e" />
    <path id="Path_91" data-name="Path 91" d="M398.44,230.236a15.942,15.942,0,0,0,18.037-3.425c-.081-.256-.157-.5-.229-.751a19.463,19.463,0,0,1-.706-4.045s-19.776-7.007-15.938,0C401.5,225.467,400.224,228.272,398.44,230.236Z" transform="translate(2204.069 -404.14)" opacity="0.1" />
    <path id="Path_92" data-name="Path 92" d="M377.65,190.8v.157a14.386,14.386,0,0,0,.09,1.533c.054.5.126.962.216,1.434a15.943,15.943,0,0,0,30.708,2.059c.108-.31.2-.62.288-.935a15.761,15.761,0,0,0,.575-4.247,9.829,9.829,0,0,0-.04-1.092A15.938,15.938,0,0,0,377.65,190.8Z" transform="translate(2215.515 -379.918)" fill="#efb7b9" />
    <path id="Path_93" data-name="Path 93" d="M377.65,190.962a6.865,6.865,0,0,1,.09,1.533,5.7,5.7,0,0,0,.045.831,2.361,2.361,0,0,0,.171.6c.643,1.51,2.746,2.49,4.135,1.515a4.433,4.433,0,0,0,1.241-1.627c1.474-2.737,3.519-5.884,6.742-5.937a15.028,15.028,0,0,1,4,.9,4.242,4.242,0,0,0,3.892-.526c.764-.7,1.124-1.883,2.144-2.126s1.964.692,2.432,1.609.841,2,1.8,2.472c.422.207.9.27,1.348.494,1.906,1.043,1.029,4.7,3.007,5.29a1.429,1.429,0,0,0,.189.045c.031-.324.067-.656.1-.98q.27-2.67.535-5.34a15.938,15.938,0,0,0-31.836,1.092Z" transform="translate(2215.515 -379.923)" opacity="0.1" />
    <path id="Path_94" data-name="Path 94" d="M397.857,151.514c1.874.8,3.825,2.018,4.243,3.928a15.758,15.758,0,0,1,.09,2.566,20.089,20.089,0,0,0,1.434,4.98c.535,1.654.715,3.6-.337,4.989-.328.449-.764.8-1.061,1.263a5.169,5.169,0,0,0-.611,2.346l-.867,8.621c-2.22-.418-1.232-4.27-3.2-5.34-.409-.225-.9-.288-1.326-.5-.948-.449-1.317-1.551-1.8-2.468s-1.393-1.856-2.432-1.609-1.38,1.434-2.139,2.126a4.3,4.3,0,0,1-3.9.526,16.534,16.534,0,0,0-3.991-.9c-3.227.054-5.277,3.2-6.742,5.937a4.445,4.445,0,0,1-1.245,1.632c-1.564,1.1-4.045-.288-4.3-2.121-.153-1.029.171-2.175-.423-3.047s-1.879-1.056-2.881-1.524c-2.562-1.178-3.353-4.373-2.931-7.052.31-1.933,1.079-3.919.449-5.78-.22-.643-.593-1.227-.8-1.87a5.069,5.069,0,0,1,1.8-5.074,14.622,14.622,0,0,1,5.2-2.607c4.778-1.6,9.794-3.146,14.877-3.479,2.225-.144,5.142-.84,6.908.548A24.542,24.542,0,0,0,397.857,151.514Z" transform="translate(2223.62 -364.423)" fill="#585268" />
    <circle id="Ellipse_6" data-name="Ellipse 6" cx="0.876" cy="0.876" r="0.876" transform="translate(2616.434 -163.845)" opacity="0.1" />
    <circle id="Ellipse_7" data-name="Ellipse 7" cx="0.876" cy="0.876" r="0.876" transform="translate(2616.434 -164.196)" fill="#444053" />
    <circle id="Ellipse_8" data-name="Ellipse 8" cx="0.876" cy="0.876" r="0.876" transform="translate(2622.039 -108.848)" opacity="0.1" />
    <circle id="Ellipse_9" data-name="Ellipse 9" cx="0.876" cy="0.876" r="0.876" transform="translate(2622.039 -109.199)" fill="#444053" />
    <circle id="Ellipse_10" data-name="Ellipse 10" cx="0.876" cy="0.876" r="0.876" transform="translate(2619.063 -94.313)" opacity="0.1" />
    <circle id="Ellipse_11" data-name="Ellipse 11" cx="0.876" cy="0.876" r="0.876" transform="translate(2619.063 -94.663)" fill="#444053" />
    <path id="Path_95" data-name="Path 95" d="M369.2,299.24s-1.928,13.079,0,15.358S369.2,299.24,369.2,299.24Z" transform="translate(2220.638 -448.37)" opacity="0.1" />
    <path id="Path_96" data-name="Path 96" d="M491.469,353.28s3.677,7.924,0,15.52-5.955,10.684-4.728,15.534S491.469,353.28,491.469,353.28Z" transform="translate(2155.641 -478.12)" opacity="0.1" />
    <path id="Path_97" data-name="Path 97" d="M108.455,664.225c5.43,3.677,13.664,1.924,13.664,1.924s12.432-5.951,16.113-5.951,12.594-3.681,12.594-3.681l-.3-2.477c-3.627.7-11.879,2.364-12.832,3.178-1.227,1.052-16.289,6.131-16.289,6.131s-10.257-1.281-13.111-5.5C106.419,659.8,105.615,662.3,108.455,664.225Z" transform="translate(2364.738 -643.699)" opacity="0.1" />
    <g id="Group_3" data-name="Group 3" transform="translate(2586.554 -208.387)" opacity="0.1">
      <path id="Path_98" data-name="Path 98" d="M450.28,167.971v.085A.271.271,0,0,0,450.28,167.971Z" transform="translate(-411.024 -167.4)" />
      <path id="Path_99" data-name="Path 99" d="M366.872,193.518c1,.449,2.247.629,2.881,1.519s.27,2.018.423,3.047c.265,1.834,2.737,3.223,4.3,2.122a4.445,4.445,0,0,0,1.245-1.632c1.47-2.737,3.519-5.883,6.742-5.937a15.385,15.385,0,0,1,4,.9,4.266,4.266,0,0,0,3.9-.526c.76-.692,1.119-1.883,2.139-2.126s1.96.692,2.432,1.609.84,2,1.8,2.472c.422.207.9.27,1.326.494,1.969,1.074.98,4.944,3.2,5.34q.449-4.315.867-8.621a5.152,5.152,0,0,1,.611-2.319c.3-.449.733-.827,1.061-1.267a3.861,3.861,0,0,0,.719-1.852,4.5,4.5,0,0,1-.719,3.254c-.328.449-.764.8-1.061,1.263a5.168,5.168,0,0,0-.62,2.342q-.45,4.31-.867,8.621c-2.22-.418-1.232-4.27-3.2-5.34-.409-.225-.9-.288-1.326-.5-.948-.449-1.317-1.551-1.8-2.468s-1.393-1.856-2.432-1.609-1.38,1.434-2.139,2.126a4.3,4.3,0,0,1-3.9.526,16.521,16.521,0,0,0-4-.9c-3.223.054-5.272,3.2-6.742,5.937a4.445,4.445,0,0,1-1.245,1.632c-1.564,1.1-4.045-.288-4.3-2.121-.153-1.029.171-2.175-.423-3.047s-1.879-1.056-2.881-1.524c-2.342-1.079-3.2-3.843-3.007-6.355A5.738,5.738,0,0,0,366.872,193.518Z" transform="translate(-363.43 -178.047)" />
      <path id="Path_100" data-name="Path 100" d="M363.107,168.582c.2.643.575,1.232.8,1.87a5.392,5.392,0,0,1,.2,2.306,4.494,4.494,0,0,0-.2-.9c-.22-.643-.593-1.227-.8-1.87a3.946,3.946,0,0,1-.1-1.829A3.68,3.68,0,0,0,363.107,168.582Z" transform="translate(-362.942 -167.818)" />
    </g>
    <path id="Path_101" data-name="Path 101" d="M537.439,461.879l-36.1-4.517a1.38,1.38,0,0,1-.822-2.328L515.658,439.3a1.376,1.376,0,0,1,1.151-.414l27.6,3.092a1.38,1.38,0,0,1,1.133,1.87L538.9,461.016A1.385,1.385,0,0,1,537.439,461.879Z" transform="translate(2148.087 -525.246)" fill="#746d83" />
    <path id="Path_102" data-name="Path 102" d="M537.439,461.879l-36.1-4.517a1.38,1.38,0,0,1-.822-2.328L515.658,439.3a1.376,1.376,0,0,1,1.151-.414l27.6,3.092a1.38,1.38,0,0,1,1.133,1.87L538.9,461.016A1.385,1.385,0,0,1,537.439,461.879Z" transform="translate(2148.087 -525.246)" opacity="0.1" />
    <path id="Path_103" data-name="Path 103" d="M536.536,460.948l-36.1-4.535a1.384,1.384,0,0,1-.823-2.333l15.142-15.731a1.394,1.394,0,0,1,1.151-.418l27.6,3.092a1.384,1.384,0,0,1,1.137,1.874L538,460.062A1.389,1.389,0,0,1,536.536,460.948Z" transform="translate(2148.581 -524.719)" fill="#746d83" />
    <path id="Path_104" data-name="Path 104" d="M531.17,440.556l10.841.872,15.462-1.007h-.265l-14.324-1.384c-3.281-1.2-1.007-8.3-1.007-8.3l-10.971.557-.877.045C526.15,440.422,531.17,440.556,531.17,440.556Z" transform="translate(2132.435 -520.765)" fill="#d1d9ec" />
    <path id="Path_105" data-name="Path 105" d="M531.17,441.244l10.841.872,15.462-1.007h-.265l-15.632.557L531.1,440.53c-2.975-.782-1.272-5.942-.2-8.54l-.877.045C526.15,441.11,531.17,441.244,531.17,441.244Z" transform="translate(2132.435 -521.453)" opacity="0.1" />
    <path id="Path_106" data-name="Path 106" d="M492.094,304.9l3.317,47.576.449,6.243a2.7,2.7,0,0,0,2.724,2.522h1.007l49.936-.3a1.407,1.407,0,0,0,1.384-1.542l-.449-6.248-3.515-41.836a2.872,2.872,0,0,0-1.919-2.427l-47.594-7.137a4.476,4.476,0,0,0-4.3.494A3.021,3.021,0,0,0,492.094,304.9Z" transform="translate(2152.521 -449.578)" fill="#4c4c56" />
    <path id="Path_107" data-name="Path 107" d="M499.5,415l.449,6.243a2.7,2.7,0,0,0,2.724,2.521h1.007l49.936-.3A1.407,1.407,0,0,0,555,421.922l-.449-6.248Z" transform="translate(2148.432 -512.099)" fill="#dfe6f5" />
    <ellipse id="Ellipse_12" data-name="Ellipse 12" cx="0.67" cy="1.339" rx="0.67" ry="1.339" transform="translate(2680.739 -93.261)" fill="#fff" />
    <path id="Path_108" data-name="Path 108" d="M548.347,462.734s-13.655-5.155-17.336-1.407c0,0-.6,1.142,1.874,1.407l10.005.8S547.007,463.938,548.347,462.734Z" transform="translate(2131.12 -536.852)" fill="#d1d9ec" />
    <path id="Path_109" data-name="Path 109" d="M549.344,460.422c-2.7-1.1-10.756-3.933-15.924-.8,0,0,5.717-.634,8.859,1.182s7.43.953,7.43.953l.063-.112a.868.868,0,0,0-.427-1.227Z" transform="translate(2129.758 -535.879)" fill="#dfe6f5" />
    <path id="Path_110" data-name="Path 110" d="M492.1,305.907l3.749,53.828a2.7,2.7,0,0,0,2.724,2.521h1.007a9.6,9.6,0,0,1-1.744-2.247s-3.681-54.089-3.951-55.428a2.741,2.741,0,0,0-.742-1.321A3.021,3.021,0,0,0,492.1,305.907Z" transform="translate(2152.52 -450.583)" fill="#dfe6f5" />
    <path id="Path_111" data-name="Path 111" d="M492.1,305.907l3.749,53.828a2.7,2.7,0,0,0,2.724,2.521h1.007a9.6,9.6,0,0,1-1.744-2.247s-3.681-54.089-3.951-55.428a2.741,2.741,0,0,0-.742-1.321A3.021,3.021,0,0,0,492.1,305.907Z" transform="translate(2152.52 -450.583)" opacity="0.1" />
    <path id="Path_112" data-name="Path 112" d="M451.267,320.923c4.045-.9,13.484-3.668,13.484-3.668l1.69-.342c-.022-5.879-.315-11.574-.422-13.484h-.04s-8.059,2.629-9.983,4.045-7.884,1.047-7.884,1.047-9.277.5-16.976,9.1S447.24,321.809,451.267,320.923Z" transform="translate(2186.908 -450.676)" opacity="0.1" />
    <path id="Path_113" data-name="Path 113" d="M490.614,301.625a2.342,2.342,0,0,1,.526,3.928c-2.135,1.766-5.25,3.879-8.225,4.176-4.944.5-16.9,2.895-18.086,3.146a1.425,1.425,0,0,0-.189.045c-.984.288-9.6,2.809-13.394,3.641-4.045.9-27.867,5.263-20.141-3.317a27.116,27.116,0,0,1,16.819-9.093,1.791,1.791,0,0,1,.31,0c.9.04,5.987.216,7.744-1.056a16.545,16.545,0,0,1,2.895-1.443,55.367,55.367,0,0,1,11.843-3.416l8.239-1.438a2.364,2.364,0,0,1,1.384.18Z" transform="translate(2186.929 -447.006)" fill="#efb7b9" />
    <path id="Path_114" data-name="Path 114" d="M511.662,256.211l3.852-.351s4.207,3.146,7.358,3.146,5.079,4.045,5.079,4.045a56.554,56.554,0,0,0,7.007,2.8c1.753.351,4.729,2.1,3.852,2.8s.175,2.279,1.753,3.5,4.045,7.533,1.924,8.409-7.879,2.625-9.439,3.5a4.346,4.346,0,0,1-3.5,0s-9.3-12.1-14.028-9.816-11.21,2.274-11.21,2.274l-5.079-10.679Z" transform="translate(2148.581 -424.487)" fill="#67647e" />
    <path id="Path_115" data-name="Path 115" d="M1005.68,742.538a7.577,7.577,0,0,0-1.02,1.928c-.068.166-.126.36-.189.544a2.086,2.086,0,0,0-.355-.126,4.946,4.946,0,0,0-1.6-.135,4.8,4.8,0,0,1,.031-.661c.063-2.369-.216-5.668-2.472-4.27-2.171,1.348-.625,3.6.773,5.034l.36.355c-1.272.9-1.515,3.025-1.73,5.232s-2.085,4.62-3.326,5.991c-.126.144-.243.265-.351.382a4.563,4.563,0,0,0-3.6-.93l-.166-.607c-1.007-3.636-3.1-9.933-5.762-11.313.113-.139.229-.283.351-.449,1.133-1.479,2.4-3.681.521-4.243s-2.05,1.91-1.946,3.758a3.841,3.841,0,0,0,.054.661,2.765,2.765,0,0,0-1.973.962l-.288-.346c-1.528-1.8-4.333-4.661-5.178-2.5-.791,2.013,1.677,4.629,3.411,6.144l.108.094c-1.168,4.724,3.92,8.576,6.657,10.261l.351.216c-3.775,4.45-6.1,12.792-6.1,12.792l10.571,1.888s7.007-6.05,6.113-11.731h.072c7-1.4,8.6-8.872,7.506-13.3l.126-.054a7.951,7.951,0,0,0,3.24-2.454C1011.8,742.938,1007.69,739.864,1005.68,742.538Z" transform="translate(1885.188 -690.577)" fill="#ff8f00" />
    <path id="Path_116" data-name="Path 116" d="M1005.68,742.538a7.577,7.577,0,0,0-1.02,1.928c-.068.166-.126.36-.189.544a2.086,2.086,0,0,0-.355-.126,4.946,4.946,0,0,0-1.6-.135,4.8,4.8,0,0,1,.031-.661c.063-2.369-.216-5.668-2.472-4.27-2.171,1.348-.625,3.6.773,5.034l.36.355c-1.272.9-1.515,3.025-1.73,5.232s-2.085,4.62-3.326,5.991c-.126.144-.243.265-.351.382a4.563,4.563,0,0,0-3.6-.93l-.166-.607c-1.007-3.636-3.1-9.933-5.762-11.313.113-.139.229-.283.351-.449,1.133-1.479,2.4-3.681.521-4.243s-2.05,1.91-1.946,3.758a3.841,3.841,0,0,0,.054.661,2.765,2.765,0,0,0-1.973.962l-.288-.346c-1.528-1.8-4.333-4.661-5.178-2.5-.791,2.013,1.677,4.629,3.411,6.144l.108.094c-1.168,4.724,3.92,8.576,6.657,10.261l.351.216c-3.775,4.45-6.1,12.792-6.1,12.792l10.571,1.888s7.007-6.05,6.113-11.731h.072c7-1.4,8.6-8.872,7.506-13.3l.126-.054a7.951,7.951,0,0,0,3.24-2.454C1011.8,742.938,1007.69,739.864,1005.68,742.538Z" transform="translate(1885.188 -690.577)" opacity="0.1" />
    <path id="Path_117" data-name="Path 117" d="M985.392,747.845l-1.236,3.618s-.683-.485-1.551-1.25c-1.735-1.515-4.2-4.131-3.411-6.144.845-2.162,3.65.692,5.178,2.5C984.987,747.288,985.392,747.845,985.392,747.845Z" transform="translate(1884.428 -692.836)" fill="#ff8f00" />
    <path id="Path_118" data-name="Path 118" d="M997.217,743.537A17.034,17.034,0,0,1,996,744.966a17.528,17.528,0,0,1-.22-1.906c-.1-1.847.09-4.31,1.946-3.758S998.34,742.058,997.217,743.537Z" transform="translate(1875.224 -690.596)" fill="#ff8f00" />
    <path id="Path_119" data-name="Path 119" d="M1030.1,744.451c-.04,1.191-.157,2.144-.157,2.144a15.62,15.62,0,0,1-1.542-1.38c-1.4-1.447-2.944-3.69-.773-5.034C1029.9,738.784,1030.162,742.083,1030.1,744.451Z" transform="translate(1858.275 -690.939)" fill="#ff8f00" />
    <path id="Path_120" data-name="Path 120" d="M1043.6,748.49a7.952,7.952,0,0,1-3.24,2.454,8.7,8.7,0,0,1-1.088.4l-1.456-2.045a14.454,14.454,0,0,1,.6-1.987,7.575,7.575,0,0,1,1.021-1.928C1041.456,742.7,1045.569,745.779,1043.6,748.49Z" transform="translate(1852.068 -693.418)" fill="#ff8f00" />
    <path id="Path_121" data-name="Path 121" d="M988.736,750.58c.616.719,1.02,1.276,1.02,1.276l-1.236,3.618s-.683-.485-1.551-1.25a7.051,7.051,0,0,1,1.389-3.178C988.485,750.877,988.615,750.724,988.736,750.58Z" transform="translate(1880.063 -696.848)" opacity="0.1" />
    <path id="Path_122" data-name="Path 122" d="M997.244,748.236a17.1,17.1,0,0,1-1.214,1.429,17.529,17.529,0,0,1-.22-1.906A2.493,2.493,0,0,1,997.244,748.236Z" transform="translate(1875.197 -695.295)" opacity="0.1" />
    <path id="Path_123" data-name="Path 123" d="M998.353,763.384l-3.074,1.348a18.654,18.654,0,0,1-1.636-.926c-3.232-1.987-9.731-6.989-5.394-12.886s7.987,4.679,9.439,9.852C998.129,762.323,998.353,763.384,998.353,763.384Z" transform="translate(1880.155 -696.078)" fill="#ff8f00" />
    <path id="Path_124" data-name="Path 124" d="M1030.67,750.854a2.547,2.547,0,0,1,1.7-.764c-.04,1.191-.157,2.144-.157,2.144A15.534,15.534,0,0,1,1030.67,750.854Z" transform="translate(1856.005 -696.578)" opacity="0.1" />
    <path id="Path_125" data-name="Path 125" d="M1040.364,754.546a8.674,8.674,0,0,1-1.088.4l-1.456-2.045a14.454,14.454,0,0,1,.6-1.987A5.276,5.276,0,0,1,1040.364,754.546Z" transform="translate(1852.068 -697.029)" opacity="0.1" />
    <path id="Path_126" data-name="Path 126" d="M1018.929,768.238c-.171.036-.342.068-.517.094-10.306,1.564-3.4-4-3.4-4s.449-.427,1.092-1.128c1.24-1.348,3.115-3.771,3.326-5.991.323-3.34.7-6.472,4.643-5.556C1027.945,752.57,1028.682,766.288,1018.929,768.238Z" transform="translate(1865.872 -697.354)" fill="#ff8f00" />
    <rect id="Rectangle_30" data-name="Rectangle 30" width="19.691" height="5.178" transform="translate(2864.916 96.544)" fill="#d4dfec" />
    <rect id="Rectangle_31" data-name="Rectangle 31" width="25.727" height="18.069" transform="translate(2861.788 79.716)" fill="#d4dfec" />
    <rect id="Rectangle_32" data-name="Rectangle 32" width="19.691" height="5.178" transform="translate(2864.916 96.544)" opacity="0.1" />
    <rect id="Rectangle_33" data-name="Rectangle 33" width="25.727" height="18.069" transform="translate(2861.788 79.716)" opacity="0.1" />
    <rect id="Rectangle_34" data-name="Rectangle 34" width="19.691" height="5.178" transform="translate(2866.211 96.544)" fill="#d4dfec" />
    <path id="Path_127" data-name="Path 127" d="M1006.045,775c.449,1.546.665,2.607.665,2.607l-3.074,1.348a18.556,18.556,0,0,1-1.636-.926A7.865,7.865,0,0,1,1006.045,775Z" transform="translate(1871.789 -710.292)" opacity="0.1" />
    <path id="Path_128" data-name="Path 128" d="M1018.929,782.58c-.171.036-.342.067-.517.094-10.306,1.564-3.4-4-3.4-4s.449-.427,1.092-1.128A6.839,6.839,0,0,1,1018.929,782.58Z" transform="translate(1865.872 -711.696)" opacity="0.1" />
    <path id="Path_129" data-name="Path 129" d="M989.22,791.665s5.771-20.675,13.861-14.293-3.29,16.181-3.29,16.181Z" transform="translate(1878.824 -710.924)" fill="#ff8f00" />
    <circle id="Ellipse_13" data-name="Ellipse 13" cx="0.647" cy="0.647" r="0.647" transform="translate(2870.31 57.436)" opacity="0.1" />
    <circle id="Ellipse_14" data-name="Ellipse 14" cx="0.647" cy="0.647" r="0.647" transform="translate(2870.256 60.456)" opacity="0.1" />
    <circle id="Ellipse_15" data-name="Ellipse 15" cx="0.647" cy="0.647" r="0.647" transform="translate(2889.026 58.029)" opacity="0.1" />
    <circle id="Ellipse_16" data-name="Ellipse 16" cx="0.647" cy="0.647" r="0.647" transform="translate(2873.924 73.513)" opacity="0.1" />
    <circle id="Ellipse_17" data-name="Ellipse 17" cx="0.647" cy="0.647" r="0.647" transform="translate(2887.677 63.045)" opacity="0.1" />
    <circle id="Ellipse_18" data-name="Ellipse 18" cx="0.647" cy="0.647" r="0.647" transform="translate(2880.989 69.738)" opacity="0.1" />
    <circle id="Ellipse_19" data-name="Ellipse 19" cx="0.647" cy="0.647" r="0.647" transform="translate(2872.521 58.73)" opacity="0.1" />
    <circle id="Ellipse_20" data-name="Ellipse 20" cx="0.647" cy="0.647" r="0.647" transform="translate(2887.246 59.971)" opacity="0.1" />
    <circle id="Ellipse_21" data-name="Ellipse 21" cx="0.647" cy="0.647" r="0.647" transform="translate(2885.034 64.987)" opacity="0.1" />
    <circle id="Ellipse_22" data-name="Ellipse 22" cx="0.647" cy="0.647" r="0.647" transform="translate(2878.239 73.028)" opacity="0.1" />
    <circle id="Ellipse_23" data-name="Ellipse 23" cx="0.647" cy="0.647" r="0.647" transform="translate(2876.836 69.846)" opacity="0.1" />
    <circle id="Ellipse_24" data-name="Ellipse 24" cx="0.647" cy="0.647" r="0.647" transform="translate(2873.492 62.668)" opacity="0.1" />
    <rect id="Rectangle_35" data-name="Rectangle 35" width="19.691" height="1.892" transform="translate(2866.211 96.544)" opacity="0.1" />
    <rect id="Rectangle_36" data-name="Rectangle 36" width="25.727" height="18.069" transform="translate(2863.083 79.716)" fill="#d4dfec" />
    <circle id="Ellipse_25" data-name="Ellipse 25" cx="0.647" cy="0.647" r="0.647" transform="translate(2879.102 75.94)" opacity="0.1" />
    <circle id="Ellipse_26" data-name="Ellipse 26" cx="0.647" cy="0.647" r="0.647" transform="translate(2875.218 76.749)" opacity="0.1" />
  </g>
</svg>
